G04 (created by PCBNEW (2013-jul-07)-stable) date Fr 21 Okt 2016 21:42:42 CEST*
%MOIN*%
G04 Gerber Fmt 3.4, Leading zero omitted, Abs format*
%FSLAX34Y34*%
G01*
G70*
G90*
G04 APERTURE LIST*
%ADD10C,0.00393701*%
%ADD11C,0.055*%
%ADD12R,0.07X0.07*%
%ADD13C,0.07*%
%ADD14R,0.35X0.35*%
%ADD15R,0.06X0.06*%
%ADD16C,0.06*%
%ADD17R,0.1X0.1*%
%ADD18C,0.1*%
%ADD19C,0.0590551*%
%ADD20C,0.15*%
%ADD21C,0.035*%
%ADD22C,0.0787402*%
%ADD23C,0.15748*%
%ADD24C,0.0511811*%
%ADD25C,0.01*%
G04 APERTURE END LIST*
G54D10*
G36*
X14271Y-16550D02*
X13882Y-16938D01*
X13493Y-16550D01*
X13882Y-16161D01*
X14271Y-16550D01*
X14271Y-16550D01*
G37*
G54D11*
X13175Y-17257D03*
X12467Y-16550D03*
G54D12*
X22225Y-15075D03*
G54D13*
X20225Y-15075D03*
X21225Y-15075D03*
G54D14*
X21225Y-8575D03*
G54D15*
X7850Y-38225D03*
G54D16*
X8850Y-38225D03*
X9850Y-38225D03*
G54D15*
X6900Y-21500D03*
G54D16*
X6900Y-20500D03*
G54D11*
X24850Y-30667D03*
G54D10*
G36*
X24142Y-31763D02*
X23753Y-31375D01*
X24142Y-30986D01*
X24531Y-31375D01*
X24142Y-31763D01*
X24142Y-31763D01*
G37*
G54D11*
X24850Y-32082D03*
G54D13*
X11900Y-10525D03*
G54D12*
X16900Y-10525D03*
G54D13*
X11900Y-8875D03*
G54D12*
X16900Y-8875D03*
G54D13*
X11900Y-7275D03*
G54D12*
X16900Y-7275D03*
G54D11*
X6900Y-16075D03*
X6900Y-14075D03*
X18300Y-24925D03*
X20300Y-24925D03*
X14350Y-25000D03*
X12350Y-25000D03*
G54D17*
X24900Y-37450D03*
G54D18*
X22900Y-37450D03*
G54D17*
X7050Y-8375D03*
G54D18*
X9050Y-8375D03*
G54D19*
X19850Y-30725D03*
X19850Y-29725D03*
X19850Y-28725D03*
X19850Y-27725D03*
X18850Y-27725D03*
X17850Y-27725D03*
X16850Y-27725D03*
X15850Y-27725D03*
X14850Y-27725D03*
X13850Y-27725D03*
X12850Y-27725D03*
X11850Y-27725D03*
X10850Y-27725D03*
X9850Y-27725D03*
X8850Y-27725D03*
X7850Y-28225D03*
X7850Y-29225D03*
X7850Y-30225D03*
X7850Y-31225D03*
X7850Y-32225D03*
X7850Y-33225D03*
X8850Y-33725D03*
X9850Y-33725D03*
X10850Y-33725D03*
X11850Y-33725D03*
X12850Y-33725D03*
X13850Y-33725D03*
X14850Y-33725D03*
X15850Y-33725D03*
X16850Y-33725D03*
X17850Y-33725D03*
X18850Y-33725D03*
X19850Y-33725D03*
X13350Y-28725D03*
X12350Y-28725D03*
G54D16*
X16475Y-23125D03*
X20475Y-23125D03*
X20475Y-20050D03*
X16475Y-20050D03*
X16475Y-21625D03*
X20475Y-21625D03*
X10150Y-13225D03*
X10150Y-17225D03*
X8600Y-17225D03*
X8600Y-13225D03*
X12450Y-12275D03*
X16450Y-12275D03*
X16450Y-14275D03*
X12450Y-14275D03*
G54D20*
X24150Y-26750D03*
X24150Y-24750D03*
X24150Y-20750D03*
X24150Y-18750D03*
G54D16*
X10350Y-23200D03*
X14350Y-23200D03*
X16500Y-18475D03*
X20500Y-18475D03*
G54D21*
X13575Y-20500D03*
X9550Y-20500D03*
G54D22*
X9850Y-27725D02*
X8850Y-27725D01*
X7850Y-38225D02*
X7000Y-38225D01*
X6400Y-37625D02*
X6400Y-27375D01*
X7000Y-38225D02*
X6400Y-37625D01*
X8850Y-26625D02*
X8850Y-27725D01*
X6400Y-27375D02*
X7500Y-26275D01*
X7500Y-26275D02*
X8500Y-26275D01*
X8500Y-26275D02*
X8850Y-26625D01*
X24142Y-31375D02*
X21800Y-31375D01*
X21800Y-31375D02*
X21150Y-30725D01*
X21150Y-30725D02*
X19850Y-30725D01*
X22225Y-15075D02*
X22225Y-16450D01*
G54D23*
X22225Y-16450D02*
X22225Y-19175D01*
G54D22*
X24850Y-30667D02*
X24850Y-28800D01*
X24150Y-28100D02*
X24150Y-26750D01*
X24850Y-28800D02*
X24150Y-28100D01*
G54D23*
X24150Y-26750D02*
X24150Y-24750D01*
G54D22*
X24150Y-24750D02*
X23675Y-24750D01*
G54D23*
X22225Y-23300D02*
X22225Y-19175D01*
X23675Y-24750D02*
X22225Y-23300D01*
G54D22*
X20475Y-20050D02*
X21350Y-20050D01*
X21350Y-20050D02*
X22225Y-19175D01*
G54D23*
X24150Y-20750D02*
X24150Y-18750D01*
X24900Y-37450D02*
X25375Y-37450D01*
X26550Y-23150D02*
X24150Y-20750D01*
X26550Y-36275D02*
X26550Y-23150D01*
X25375Y-37450D02*
X26550Y-36275D01*
G54D22*
X10150Y-13225D02*
X10150Y-12275D01*
X10150Y-12275D02*
X11900Y-10525D01*
G54D23*
X9050Y-8375D02*
X11400Y-8375D01*
G54D22*
X11400Y-8375D02*
X11900Y-8875D01*
G54D23*
X11900Y-8875D02*
X11900Y-10525D01*
X11900Y-7275D02*
X11900Y-8875D01*
G54D22*
X16500Y-18475D02*
X18450Y-18475D01*
X17850Y-26900D02*
X17850Y-27725D01*
X19300Y-25450D02*
X17850Y-26900D01*
X19300Y-19325D02*
X19300Y-25450D01*
X18450Y-18475D02*
X19300Y-19325D01*
X16475Y-23125D02*
X16225Y-23125D01*
X15800Y-18475D02*
X16500Y-18475D01*
X15275Y-19000D02*
X15800Y-18475D01*
X15275Y-22175D02*
X15275Y-19000D01*
X16225Y-23125D02*
X15275Y-22175D01*
X8850Y-38225D02*
X8850Y-33725D01*
X12450Y-12275D02*
X13825Y-10900D01*
X16525Y-10900D02*
X16900Y-10525D01*
X13825Y-10900D02*
X16525Y-10900D01*
X21225Y-15075D02*
X21225Y-13500D01*
G54D23*
X17325Y-8875D02*
X16900Y-8875D01*
X18000Y-9550D02*
X17325Y-8875D01*
X18000Y-10925D02*
X18000Y-9550D01*
X19100Y-12025D02*
X18000Y-10925D01*
X19750Y-12025D02*
X19100Y-12025D01*
X21225Y-13500D02*
X19750Y-12025D01*
X16900Y-8875D02*
X16900Y-10525D01*
X16900Y-7275D02*
X16900Y-8875D01*
G54D22*
X18300Y-24925D02*
X17425Y-25800D01*
X15850Y-26550D02*
X15850Y-27725D01*
X16600Y-25800D02*
X15850Y-26550D01*
X17425Y-25800D02*
X16600Y-25800D01*
X16475Y-21625D02*
X17500Y-21625D01*
X18300Y-22425D02*
X18300Y-24925D01*
X17500Y-21625D02*
X18300Y-22425D01*
X16475Y-20050D02*
X16475Y-21625D01*
X14350Y-23200D02*
X14350Y-25000D01*
X14350Y-23200D02*
X13550Y-22400D01*
X13550Y-22400D02*
X13550Y-20525D01*
X13550Y-20525D02*
X13575Y-20500D01*
X9550Y-20500D02*
X6900Y-20500D01*
X14350Y-25000D02*
X14350Y-25675D01*
X14865Y-27725D02*
X14850Y-27725D01*
X14865Y-26190D02*
X14865Y-27725D01*
X14350Y-25675D02*
X14865Y-26190D01*
X16450Y-14275D02*
X16450Y-12275D01*
X20225Y-15075D02*
X17250Y-15075D01*
X17250Y-15075D02*
X16450Y-14275D01*
X10350Y-23200D02*
X10350Y-24950D01*
X10350Y-24950D02*
X11850Y-26450D01*
X11850Y-26450D02*
X11850Y-27725D01*
X9850Y-38225D02*
X9850Y-37000D01*
X21450Y-34650D02*
X21450Y-32875D01*
X20425Y-35675D02*
X21450Y-34650D01*
X11175Y-35675D02*
X20425Y-35675D01*
X9850Y-37000D02*
X11175Y-35675D01*
X24850Y-32082D02*
X24850Y-32425D01*
G54D24*
X11600Y-27975D02*
X11850Y-27725D01*
X11600Y-28325D02*
X11600Y-27975D01*
X10750Y-29175D02*
X11600Y-28325D01*
G54D22*
X10750Y-31075D02*
X10750Y-29175D01*
X11700Y-32025D02*
X10750Y-31075D01*
X20600Y-32025D02*
X11700Y-32025D01*
X21450Y-32875D02*
X20600Y-32025D01*
X24400Y-32875D02*
X21450Y-32875D01*
X24850Y-32425D02*
X24400Y-32875D01*
X13175Y-17257D02*
X13175Y-17600D01*
X20500Y-17600D02*
X20500Y-18475D01*
X19825Y-16925D02*
X20500Y-17600D01*
X15525Y-16925D02*
X19825Y-16925D01*
X14375Y-18075D02*
X15525Y-16925D01*
X13650Y-18075D02*
X14375Y-18075D01*
X13175Y-17600D02*
X13650Y-18075D01*
X13850Y-27725D02*
X13850Y-26625D01*
X11950Y-19025D02*
X10150Y-17225D01*
X11950Y-22600D02*
X11950Y-19025D01*
X13325Y-23975D02*
X11950Y-22600D01*
X13325Y-26100D02*
X13325Y-23975D01*
X13850Y-26625D02*
X13325Y-26100D01*
X8600Y-17225D02*
X10150Y-17225D01*
X8600Y-17225D02*
X8050Y-17225D01*
X8050Y-17225D02*
X6900Y-16075D01*
X12467Y-16550D02*
X12467Y-14292D01*
X12467Y-14292D02*
X12450Y-14275D01*
G54D10*
G36*
X24222Y-30748D02*
X24192Y-30736D01*
X24092Y-30736D01*
X24001Y-30774D01*
X23851Y-30924D01*
X23851Y-31012D01*
X24142Y-31304D01*
X24148Y-31298D01*
X24219Y-31369D01*
X24213Y-31375D01*
X24219Y-31380D01*
X24148Y-31451D01*
X24142Y-31445D01*
X24072Y-31516D01*
X24072Y-31375D01*
X23780Y-31083D01*
X23692Y-31083D01*
X23542Y-31233D01*
X23504Y-31325D01*
X23503Y-31424D01*
X23541Y-31516D01*
X23612Y-31586D01*
X23692Y-31666D01*
X23780Y-31666D01*
X24072Y-31375D01*
X24072Y-31516D01*
X23851Y-31737D01*
X23851Y-31825D01*
X23931Y-31905D01*
X24001Y-31975D01*
X24093Y-32013D01*
X24192Y-32013D01*
X24222Y-32001D01*
X24206Y-32082D01*
X24206Y-32158D01*
X24133Y-32231D01*
X21716Y-32231D01*
X21055Y-31569D01*
X21029Y-31552D01*
X21029Y-23206D01*
X21029Y-21706D01*
X21018Y-21488D01*
X20956Y-21337D01*
X20860Y-21309D01*
X20790Y-21380D01*
X20790Y-21239D01*
X20762Y-21143D01*
X20556Y-21070D01*
X20338Y-21081D01*
X20187Y-21143D01*
X20159Y-21239D01*
X20475Y-21554D01*
X20790Y-21239D01*
X20790Y-21380D01*
X20545Y-21625D01*
X20860Y-21940D01*
X20956Y-21912D01*
X21029Y-21706D01*
X21029Y-23206D01*
X21018Y-22988D01*
X20956Y-22837D01*
X20860Y-22809D01*
X20790Y-22880D01*
X20790Y-22739D01*
X20790Y-22010D01*
X20475Y-21695D01*
X20159Y-22010D01*
X20187Y-22106D01*
X20393Y-22179D01*
X20611Y-22168D01*
X20762Y-22106D01*
X20790Y-22010D01*
X20790Y-22739D01*
X20762Y-22643D01*
X20556Y-22570D01*
X20338Y-22581D01*
X20187Y-22643D01*
X20159Y-22739D01*
X20475Y-23054D01*
X20790Y-22739D01*
X20790Y-22880D01*
X20545Y-23125D01*
X20860Y-23440D01*
X20956Y-23412D01*
X21029Y-23206D01*
X21029Y-31552D01*
X20846Y-31430D01*
X20829Y-31427D01*
X20829Y-25000D01*
X20818Y-24792D01*
X20790Y-24723D01*
X20790Y-23510D01*
X20475Y-23195D01*
X20159Y-23510D01*
X20187Y-23606D01*
X20393Y-23679D01*
X20611Y-23668D01*
X20762Y-23606D01*
X20790Y-23510D01*
X20790Y-24723D01*
X20760Y-24652D01*
X20667Y-24627D01*
X20597Y-24698D01*
X20370Y-24925D01*
X20667Y-25222D01*
X20760Y-25197D01*
X20829Y-25000D01*
X20829Y-31427D01*
X20600Y-31381D01*
X20599Y-31381D01*
X20597Y-31381D01*
X20400Y-31381D01*
X20400Y-30805D01*
X20389Y-30588D01*
X20327Y-30439D01*
X20232Y-30413D01*
X19920Y-30725D01*
X20232Y-31036D01*
X20327Y-31010D01*
X20400Y-30805D01*
X20400Y-31381D01*
X20161Y-31381D01*
X20161Y-31107D01*
X19850Y-30795D01*
X19779Y-30866D01*
X19779Y-30725D01*
X19467Y-30413D01*
X19372Y-30439D01*
X19299Y-30644D01*
X19310Y-30861D01*
X19372Y-31010D01*
X19467Y-31036D01*
X19779Y-30725D01*
X19779Y-30866D01*
X19538Y-31107D01*
X19564Y-31202D01*
X19769Y-31275D01*
X19986Y-31264D01*
X20135Y-31202D01*
X20161Y-31107D01*
X20161Y-31381D01*
X11966Y-31381D01*
X11393Y-30808D01*
X11393Y-29246D01*
X11805Y-28834D01*
X11887Y-29033D01*
X12040Y-29186D01*
X12241Y-29270D01*
X12457Y-29270D01*
X12658Y-29187D01*
X12811Y-29034D01*
X12849Y-28942D01*
X12887Y-29033D01*
X13040Y-29186D01*
X13241Y-29270D01*
X13457Y-29270D01*
X13658Y-29187D01*
X13811Y-29034D01*
X13895Y-28833D01*
X13895Y-28617D01*
X13812Y-28416D01*
X13743Y-28347D01*
X13850Y-28368D01*
X14096Y-28319D01*
X14305Y-28180D01*
X14350Y-28113D01*
X14394Y-28180D01*
X14603Y-28319D01*
X14850Y-28368D01*
X14865Y-28368D01*
X15112Y-28319D01*
X15320Y-28180D01*
X15357Y-28124D01*
X15394Y-28180D01*
X15603Y-28319D01*
X15850Y-28368D01*
X16096Y-28319D01*
X16305Y-28180D01*
X16396Y-28042D01*
X16540Y-28186D01*
X16741Y-28270D01*
X16957Y-28270D01*
X17158Y-28187D01*
X17303Y-28043D01*
X17394Y-28180D01*
X17603Y-28319D01*
X17850Y-28368D01*
X18096Y-28319D01*
X18305Y-28180D01*
X18396Y-28042D01*
X18540Y-28186D01*
X18741Y-28270D01*
X18957Y-28270D01*
X19158Y-28187D01*
X19311Y-28034D01*
X19349Y-27942D01*
X19387Y-28033D01*
X19540Y-28186D01*
X19632Y-28224D01*
X19541Y-28262D01*
X19388Y-28415D01*
X19304Y-28616D01*
X19304Y-28832D01*
X19387Y-29033D01*
X19540Y-29186D01*
X19632Y-29224D01*
X19541Y-29262D01*
X19388Y-29415D01*
X19304Y-29616D01*
X19304Y-29832D01*
X19387Y-30033D01*
X19540Y-30186D01*
X19625Y-30222D01*
X19564Y-30247D01*
X19538Y-30342D01*
X19850Y-30654D01*
X20161Y-30342D01*
X20135Y-30247D01*
X20069Y-30224D01*
X20158Y-30187D01*
X20311Y-30034D01*
X20395Y-29833D01*
X20395Y-29617D01*
X20312Y-29416D01*
X20159Y-29263D01*
X20067Y-29225D01*
X20158Y-29187D01*
X20311Y-29034D01*
X20395Y-28833D01*
X20395Y-28617D01*
X20312Y-28416D01*
X20159Y-28263D01*
X20067Y-28225D01*
X20158Y-28187D01*
X20311Y-28034D01*
X20395Y-27833D01*
X20395Y-27617D01*
X20312Y-27416D01*
X20159Y-27263D01*
X19958Y-27179D01*
X19742Y-27179D01*
X19541Y-27262D01*
X19388Y-27415D01*
X19350Y-27507D01*
X19312Y-27416D01*
X19159Y-27263D01*
X18958Y-27179D01*
X18742Y-27179D01*
X18541Y-27262D01*
X18493Y-27310D01*
X18493Y-27166D01*
X19755Y-25905D01*
X19755Y-25905D01*
X19755Y-25905D01*
X19894Y-25696D01*
X19894Y-25696D01*
X19943Y-25450D01*
X19943Y-25324D01*
X19957Y-25338D01*
X20002Y-25292D01*
X20027Y-25385D01*
X20224Y-25454D01*
X20432Y-25443D01*
X20572Y-25385D01*
X20597Y-25292D01*
X20300Y-24995D01*
X20294Y-25001D01*
X20223Y-24930D01*
X20229Y-24925D01*
X20223Y-24919D01*
X20294Y-24848D01*
X20300Y-24854D01*
X20597Y-24557D01*
X20572Y-24464D01*
X20375Y-24395D01*
X20167Y-24406D01*
X20027Y-24464D01*
X20002Y-24557D01*
X19957Y-24511D01*
X19943Y-24525D01*
X19943Y-23292D01*
X19993Y-23412D01*
X20089Y-23440D01*
X20404Y-23125D01*
X20089Y-22809D01*
X19993Y-22837D01*
X19943Y-22977D01*
X19943Y-21792D01*
X19993Y-21912D01*
X20089Y-21940D01*
X20404Y-21625D01*
X20089Y-21309D01*
X19993Y-21337D01*
X19943Y-21477D01*
X19943Y-20391D01*
X20019Y-20505D01*
X20228Y-20644D01*
X20475Y-20693D01*
X21187Y-20693D01*
X21187Y-23300D01*
X21266Y-23696D01*
X21491Y-24033D01*
X22941Y-25483D01*
X23112Y-25597D01*
X23112Y-26750D01*
X23149Y-26937D01*
X23149Y-26948D01*
X23153Y-26958D01*
X23191Y-27146D01*
X23297Y-27305D01*
X23301Y-27315D01*
X23309Y-27323D01*
X23416Y-27483D01*
X23506Y-27543D01*
X23506Y-28099D01*
X23506Y-28100D01*
X23555Y-28346D01*
X23694Y-28555D01*
X24206Y-29066D01*
X24206Y-30667D01*
X24222Y-30748D01*
X24222Y-30748D01*
G37*
G54D25*
X24222Y-30748D02*
X24192Y-30736D01*
X24092Y-30736D01*
X24001Y-30774D01*
X23851Y-30924D01*
X23851Y-31012D01*
X24142Y-31304D01*
X24148Y-31298D01*
X24219Y-31369D01*
X24213Y-31375D01*
X24219Y-31380D01*
X24148Y-31451D01*
X24142Y-31445D01*
X24072Y-31516D01*
X24072Y-31375D01*
X23780Y-31083D01*
X23692Y-31083D01*
X23542Y-31233D01*
X23504Y-31325D01*
X23503Y-31424D01*
X23541Y-31516D01*
X23612Y-31586D01*
X23692Y-31666D01*
X23780Y-31666D01*
X24072Y-31375D01*
X24072Y-31516D01*
X23851Y-31737D01*
X23851Y-31825D01*
X23931Y-31905D01*
X24001Y-31975D01*
X24093Y-32013D01*
X24192Y-32013D01*
X24222Y-32001D01*
X24206Y-32082D01*
X24206Y-32158D01*
X24133Y-32231D01*
X21716Y-32231D01*
X21055Y-31569D01*
X21029Y-31552D01*
X21029Y-23206D01*
X21029Y-21706D01*
X21018Y-21488D01*
X20956Y-21337D01*
X20860Y-21309D01*
X20790Y-21380D01*
X20790Y-21239D01*
X20762Y-21143D01*
X20556Y-21070D01*
X20338Y-21081D01*
X20187Y-21143D01*
X20159Y-21239D01*
X20475Y-21554D01*
X20790Y-21239D01*
X20790Y-21380D01*
X20545Y-21625D01*
X20860Y-21940D01*
X20956Y-21912D01*
X21029Y-21706D01*
X21029Y-23206D01*
X21018Y-22988D01*
X20956Y-22837D01*
X20860Y-22809D01*
X20790Y-22880D01*
X20790Y-22739D01*
X20790Y-22010D01*
X20475Y-21695D01*
X20159Y-22010D01*
X20187Y-22106D01*
X20393Y-22179D01*
X20611Y-22168D01*
X20762Y-22106D01*
X20790Y-22010D01*
X20790Y-22739D01*
X20762Y-22643D01*
X20556Y-22570D01*
X20338Y-22581D01*
X20187Y-22643D01*
X20159Y-22739D01*
X20475Y-23054D01*
X20790Y-22739D01*
X20790Y-22880D01*
X20545Y-23125D01*
X20860Y-23440D01*
X20956Y-23412D01*
X21029Y-23206D01*
X21029Y-31552D01*
X20846Y-31430D01*
X20829Y-31427D01*
X20829Y-25000D01*
X20818Y-24792D01*
X20790Y-24723D01*
X20790Y-23510D01*
X20475Y-23195D01*
X20159Y-23510D01*
X20187Y-23606D01*
X20393Y-23679D01*
X20611Y-23668D01*
X20762Y-23606D01*
X20790Y-23510D01*
X20790Y-24723D01*
X20760Y-24652D01*
X20667Y-24627D01*
X20597Y-24698D01*
X20370Y-24925D01*
X20667Y-25222D01*
X20760Y-25197D01*
X20829Y-25000D01*
X20829Y-31427D01*
X20600Y-31381D01*
X20599Y-31381D01*
X20597Y-31381D01*
X20400Y-31381D01*
X20400Y-30805D01*
X20389Y-30588D01*
X20327Y-30439D01*
X20232Y-30413D01*
X19920Y-30725D01*
X20232Y-31036D01*
X20327Y-31010D01*
X20400Y-30805D01*
X20400Y-31381D01*
X20161Y-31381D01*
X20161Y-31107D01*
X19850Y-30795D01*
X19779Y-30866D01*
X19779Y-30725D01*
X19467Y-30413D01*
X19372Y-30439D01*
X19299Y-30644D01*
X19310Y-30861D01*
X19372Y-31010D01*
X19467Y-31036D01*
X19779Y-30725D01*
X19779Y-30866D01*
X19538Y-31107D01*
X19564Y-31202D01*
X19769Y-31275D01*
X19986Y-31264D01*
X20135Y-31202D01*
X20161Y-31107D01*
X20161Y-31381D01*
X11966Y-31381D01*
X11393Y-30808D01*
X11393Y-29246D01*
X11805Y-28834D01*
X11887Y-29033D01*
X12040Y-29186D01*
X12241Y-29270D01*
X12457Y-29270D01*
X12658Y-29187D01*
X12811Y-29034D01*
X12849Y-28942D01*
X12887Y-29033D01*
X13040Y-29186D01*
X13241Y-29270D01*
X13457Y-29270D01*
X13658Y-29187D01*
X13811Y-29034D01*
X13895Y-28833D01*
X13895Y-28617D01*
X13812Y-28416D01*
X13743Y-28347D01*
X13850Y-28368D01*
X14096Y-28319D01*
X14305Y-28180D01*
X14350Y-28113D01*
X14394Y-28180D01*
X14603Y-28319D01*
X14850Y-28368D01*
X14865Y-28368D01*
X15112Y-28319D01*
X15320Y-28180D01*
X15357Y-28124D01*
X15394Y-28180D01*
X15603Y-28319D01*
X15850Y-28368D01*
X16096Y-28319D01*
X16305Y-28180D01*
X16396Y-28042D01*
X16540Y-28186D01*
X16741Y-28270D01*
X16957Y-28270D01*
X17158Y-28187D01*
X17303Y-28043D01*
X17394Y-28180D01*
X17603Y-28319D01*
X17850Y-28368D01*
X18096Y-28319D01*
X18305Y-28180D01*
X18396Y-28042D01*
X18540Y-28186D01*
X18741Y-28270D01*
X18957Y-28270D01*
X19158Y-28187D01*
X19311Y-28034D01*
X19349Y-27942D01*
X19387Y-28033D01*
X19540Y-28186D01*
X19632Y-28224D01*
X19541Y-28262D01*
X19388Y-28415D01*
X19304Y-28616D01*
X19304Y-28832D01*
X19387Y-29033D01*
X19540Y-29186D01*
X19632Y-29224D01*
X19541Y-29262D01*
X19388Y-29415D01*
X19304Y-29616D01*
X19304Y-29832D01*
X19387Y-30033D01*
X19540Y-30186D01*
X19625Y-30222D01*
X19564Y-30247D01*
X19538Y-30342D01*
X19850Y-30654D01*
X20161Y-30342D01*
X20135Y-30247D01*
X20069Y-30224D01*
X20158Y-30187D01*
X20311Y-30034D01*
X20395Y-29833D01*
X20395Y-29617D01*
X20312Y-29416D01*
X20159Y-29263D01*
X20067Y-29225D01*
X20158Y-29187D01*
X20311Y-29034D01*
X20395Y-28833D01*
X20395Y-28617D01*
X20312Y-28416D01*
X20159Y-28263D01*
X20067Y-28225D01*
X20158Y-28187D01*
X20311Y-28034D01*
X20395Y-27833D01*
X20395Y-27617D01*
X20312Y-27416D01*
X20159Y-27263D01*
X19958Y-27179D01*
X19742Y-27179D01*
X19541Y-27262D01*
X19388Y-27415D01*
X19350Y-27507D01*
X19312Y-27416D01*
X19159Y-27263D01*
X18958Y-27179D01*
X18742Y-27179D01*
X18541Y-27262D01*
X18493Y-27310D01*
X18493Y-27166D01*
X19755Y-25905D01*
X19755Y-25905D01*
X19755Y-25905D01*
X19894Y-25696D01*
X19894Y-25696D01*
X19943Y-25450D01*
X19943Y-25324D01*
X19957Y-25338D01*
X20002Y-25292D01*
X20027Y-25385D01*
X20224Y-25454D01*
X20432Y-25443D01*
X20572Y-25385D01*
X20597Y-25292D01*
X20300Y-24995D01*
X20294Y-25001D01*
X20223Y-24930D01*
X20229Y-24925D01*
X20223Y-24919D01*
X20294Y-24848D01*
X20300Y-24854D01*
X20597Y-24557D01*
X20572Y-24464D01*
X20375Y-24395D01*
X20167Y-24406D01*
X20027Y-24464D01*
X20002Y-24557D01*
X19957Y-24511D01*
X19943Y-24525D01*
X19943Y-23292D01*
X19993Y-23412D01*
X20089Y-23440D01*
X20404Y-23125D01*
X20089Y-22809D01*
X19993Y-22837D01*
X19943Y-22977D01*
X19943Y-21792D01*
X19993Y-21912D01*
X20089Y-21940D01*
X20404Y-21625D01*
X20089Y-21309D01*
X19993Y-21337D01*
X19943Y-21477D01*
X19943Y-20391D01*
X20019Y-20505D01*
X20228Y-20644D01*
X20475Y-20693D01*
X21187Y-20693D01*
X21187Y-23300D01*
X21266Y-23696D01*
X21491Y-24033D01*
X22941Y-25483D01*
X23112Y-25597D01*
X23112Y-26750D01*
X23149Y-26937D01*
X23149Y-26948D01*
X23153Y-26958D01*
X23191Y-27146D01*
X23297Y-27305D01*
X23301Y-27315D01*
X23309Y-27323D01*
X23416Y-27483D01*
X23506Y-27543D01*
X23506Y-28099D01*
X23506Y-28100D01*
X23555Y-28346D01*
X23694Y-28555D01*
X24206Y-29066D01*
X24206Y-30667D01*
X24222Y-30748D01*
G54D10*
G36*
X28900Y-40150D02*
X27587Y-40151D01*
X27587Y-36275D01*
X27587Y-23150D01*
X27587Y-23149D01*
X27508Y-22753D01*
X27508Y-22753D01*
X27433Y-22641D01*
X27283Y-22416D01*
X27283Y-22416D01*
X25187Y-20320D01*
X25187Y-18750D01*
X25150Y-18562D01*
X25150Y-18551D01*
X25146Y-18541D01*
X25108Y-18353D01*
X25002Y-18194D01*
X24998Y-18184D01*
X24990Y-18176D01*
X24883Y-18016D01*
X24724Y-17910D01*
X24717Y-17902D01*
X24707Y-17898D01*
X24546Y-17791D01*
X24359Y-17754D01*
X24349Y-17750D01*
X24338Y-17750D01*
X24150Y-17712D01*
X23962Y-17749D01*
X23951Y-17749D01*
X23941Y-17753D01*
X23753Y-17791D01*
X23594Y-17897D01*
X23584Y-17901D01*
X23576Y-17909D01*
X23416Y-18016D01*
X23310Y-18175D01*
X23302Y-18182D01*
X23298Y-18192D01*
X23262Y-18246D01*
X23262Y-16450D01*
X23225Y-16262D01*
X23225Y-10275D01*
X23225Y-6775D01*
X23187Y-6683D01*
X23116Y-6613D01*
X23024Y-6575D01*
X22925Y-6574D01*
X19425Y-6574D01*
X19333Y-6612D01*
X19263Y-6683D01*
X19225Y-6775D01*
X19224Y-6874D01*
X19224Y-10374D01*
X19262Y-10466D01*
X19333Y-10536D01*
X19425Y-10574D01*
X19524Y-10575D01*
X23024Y-10575D01*
X23116Y-10537D01*
X23186Y-10466D01*
X23224Y-10374D01*
X23225Y-10275D01*
X23225Y-16262D01*
X23183Y-16053D01*
X22958Y-15716D01*
X22868Y-15656D01*
X22868Y-15075D01*
X22825Y-14855D01*
X22825Y-14675D01*
X22787Y-14583D01*
X22716Y-14513D01*
X22624Y-14475D01*
X22525Y-14474D01*
X22444Y-14474D01*
X22225Y-14431D01*
X22005Y-14474D01*
X21868Y-14474D01*
X21868Y-14293D01*
X21958Y-14233D01*
X22183Y-13896D01*
X22262Y-13500D01*
X22183Y-13103D01*
X21958Y-12766D01*
X20483Y-11291D01*
X20146Y-11066D01*
X19750Y-10987D01*
X19529Y-10987D01*
X19037Y-10495D01*
X19037Y-9550D01*
X18958Y-9153D01*
X18733Y-8816D01*
X18058Y-8141D01*
X17937Y-8060D01*
X17937Y-7275D01*
X17858Y-6878D01*
X17633Y-6541D01*
X17296Y-6316D01*
X16900Y-6237D01*
X16503Y-6316D01*
X16166Y-6541D01*
X15941Y-6878D01*
X15862Y-7275D01*
X15862Y-8875D01*
X15862Y-10256D01*
X13825Y-10256D01*
X13824Y-10256D01*
X13776Y-10266D01*
X13578Y-10305D01*
X13369Y-10444D01*
X13369Y-10444D01*
X12789Y-11025D01*
X12858Y-10921D01*
X12937Y-10525D01*
X12937Y-8875D01*
X12937Y-7275D01*
X12858Y-6878D01*
X12633Y-6541D01*
X12296Y-6316D01*
X11900Y-6237D01*
X11503Y-6316D01*
X11166Y-6541D01*
X10941Y-6878D01*
X10862Y-7275D01*
X10862Y-7337D01*
X9050Y-7337D01*
X8653Y-7416D01*
X8316Y-7641D01*
X8091Y-7978D01*
X8012Y-8375D01*
X8091Y-8771D01*
X8316Y-9108D01*
X8653Y-9333D01*
X9050Y-9412D01*
X10862Y-9412D01*
X10862Y-10525D01*
X10883Y-10630D01*
X9694Y-11819D01*
X9555Y-12028D01*
X9506Y-12275D01*
X9506Y-12275D01*
X9506Y-13225D01*
X9555Y-13471D01*
X9694Y-13680D01*
X9903Y-13819D01*
X10150Y-13868D01*
X10396Y-13819D01*
X10605Y-13680D01*
X10744Y-13471D01*
X10793Y-13225D01*
X10793Y-12541D01*
X11794Y-11541D01*
X11900Y-11562D01*
X12296Y-11483D01*
X12400Y-11414D01*
X11994Y-11819D01*
X11855Y-12028D01*
X11806Y-12275D01*
X11855Y-12521D01*
X11994Y-12730D01*
X12203Y-12869D01*
X12450Y-12918D01*
X12696Y-12869D01*
X12905Y-12730D01*
X14091Y-11543D01*
X16524Y-11543D01*
X16525Y-11543D01*
X16525Y-11543D01*
X16665Y-11515D01*
X16665Y-11515D01*
X16900Y-11562D01*
X17166Y-11509D01*
X17266Y-11658D01*
X18366Y-12758D01*
X18366Y-12758D01*
X18591Y-12908D01*
X18703Y-12983D01*
X18703Y-12983D01*
X19100Y-13062D01*
X19320Y-13062D01*
X20491Y-14233D01*
X20581Y-14293D01*
X20581Y-14553D01*
X20471Y-14480D01*
X20225Y-14431D01*
X17516Y-14431D01*
X17093Y-14008D01*
X17093Y-12275D01*
X17044Y-12028D01*
X16905Y-11819D01*
X16696Y-11680D01*
X16450Y-11631D01*
X16203Y-11680D01*
X15994Y-11819D01*
X15855Y-12028D01*
X15806Y-12275D01*
X15806Y-14274D01*
X15806Y-14275D01*
X15855Y-14521D01*
X15994Y-14730D01*
X16794Y-15530D01*
X16794Y-15530D01*
X17003Y-15669D01*
X17003Y-15669D01*
X17201Y-15708D01*
X17249Y-15718D01*
X17249Y-15718D01*
X17250Y-15718D01*
X20225Y-15718D01*
X20471Y-15669D01*
X20680Y-15530D01*
X20725Y-15463D01*
X20769Y-15530D01*
X20978Y-15669D01*
X21225Y-15718D01*
X21471Y-15669D01*
X21581Y-15596D01*
X21581Y-15656D01*
X21491Y-15716D01*
X21266Y-16053D01*
X21187Y-16450D01*
X21187Y-19175D01*
X21187Y-19302D01*
X21143Y-19345D01*
X21143Y-18475D01*
X21143Y-17600D01*
X21094Y-17353D01*
X21094Y-17353D01*
X21038Y-17270D01*
X20955Y-17144D01*
X20955Y-17144D01*
X20280Y-16469D01*
X20071Y-16330D01*
X19825Y-16281D01*
X19824Y-16281D01*
X15525Y-16281D01*
X15524Y-16281D01*
X15476Y-16291D01*
X15278Y-16330D01*
X15069Y-16469D01*
X15069Y-16469D01*
X14521Y-17018D01*
X14521Y-16599D01*
X14520Y-16500D01*
X14482Y-16408D01*
X14332Y-16258D01*
X14244Y-16258D01*
X14173Y-16329D01*
X14173Y-16187D01*
X14173Y-16099D01*
X14023Y-15949D01*
X13932Y-15911D01*
X13832Y-15911D01*
X13740Y-15949D01*
X13670Y-16019D01*
X13590Y-16099D01*
X13590Y-16187D01*
X13882Y-16479D01*
X14173Y-16187D01*
X14173Y-16329D01*
X13952Y-16550D01*
X14244Y-16841D01*
X14332Y-16841D01*
X14412Y-16761D01*
X14483Y-16691D01*
X14521Y-16599D01*
X14521Y-17018D01*
X14108Y-17431D01*
X13916Y-17431D01*
X13818Y-17333D01*
X13818Y-17257D01*
X13802Y-17176D01*
X13832Y-17188D01*
X13931Y-17188D01*
X14023Y-17150D01*
X14093Y-17080D01*
X14173Y-17000D01*
X14173Y-16912D01*
X13882Y-16620D01*
X13876Y-16626D01*
X13805Y-16555D01*
X13811Y-16550D01*
X13519Y-16258D01*
X13431Y-16258D01*
X13351Y-16338D01*
X13281Y-16408D01*
X13243Y-16500D01*
X13243Y-16599D01*
X13255Y-16629D01*
X13175Y-16613D01*
X13095Y-16629D01*
X13111Y-16550D01*
X13111Y-14292D01*
X13062Y-14046D01*
X13062Y-14046D01*
X12923Y-13837D01*
X12923Y-13837D01*
X12905Y-13819D01*
X12696Y-13680D01*
X12450Y-13631D01*
X12203Y-13680D01*
X11994Y-13819D01*
X11855Y-14028D01*
X11806Y-14275D01*
X11824Y-14364D01*
X11824Y-16550D01*
X11873Y-16796D01*
X12012Y-17005D01*
X12221Y-17144D01*
X12467Y-17193D01*
X12547Y-17177D01*
X12531Y-17257D01*
X12531Y-17599D01*
X12531Y-17600D01*
X12580Y-17846D01*
X12719Y-18055D01*
X13194Y-18530D01*
X13194Y-18530D01*
X13403Y-18669D01*
X13403Y-18669D01*
X13650Y-18718D01*
X14374Y-18718D01*
X14375Y-18718D01*
X14375Y-18718D01*
X14621Y-18669D01*
X14621Y-18669D01*
X14830Y-18530D01*
X15791Y-17568D01*
X19558Y-17568D01*
X19856Y-17866D01*
X19856Y-18475D01*
X19905Y-18721D01*
X20044Y-18930D01*
X20253Y-19069D01*
X20500Y-19118D01*
X20746Y-19069D01*
X20955Y-18930D01*
X21094Y-18721D01*
X21143Y-18475D01*
X21143Y-19345D01*
X21083Y-19406D01*
X20475Y-19406D01*
X20228Y-19455D01*
X20019Y-19594D01*
X19943Y-19708D01*
X19943Y-19325D01*
X19943Y-19325D01*
X19943Y-19325D01*
X19894Y-19078D01*
X19894Y-19078D01*
X19755Y-18869D01*
X18905Y-18019D01*
X18696Y-17880D01*
X18450Y-17831D01*
X18449Y-17831D01*
X16500Y-17831D01*
X15800Y-17831D01*
X15799Y-17831D01*
X15751Y-17841D01*
X15553Y-17880D01*
X15344Y-18019D01*
X15344Y-18019D01*
X14819Y-18544D01*
X14680Y-18753D01*
X14631Y-19000D01*
X14631Y-19000D01*
X14631Y-22174D01*
X14631Y-22175D01*
X14680Y-22421D01*
X14819Y-22630D01*
X15769Y-23580D01*
X15769Y-23580D01*
X15978Y-23719D01*
X15978Y-23719D01*
X16225Y-23768D01*
X16475Y-23768D01*
X16721Y-23719D01*
X16930Y-23580D01*
X17069Y-23371D01*
X17118Y-23125D01*
X17069Y-22878D01*
X16930Y-22669D01*
X16721Y-22530D01*
X16495Y-22485D01*
X16230Y-22220D01*
X16475Y-22268D01*
X17233Y-22268D01*
X17656Y-22691D01*
X17656Y-24658D01*
X17158Y-25156D01*
X16600Y-25156D01*
X16599Y-25156D01*
X16551Y-25166D01*
X16353Y-25205D01*
X16144Y-25344D01*
X16144Y-25344D01*
X15474Y-26015D01*
X15460Y-25944D01*
X15460Y-25944D01*
X15320Y-25735D01*
X15320Y-25735D01*
X14993Y-25408D01*
X14993Y-25000D01*
X14993Y-23200D01*
X14993Y-23199D01*
X14993Y-23199D01*
X14983Y-23151D01*
X14944Y-22953D01*
X14944Y-22953D01*
X14805Y-22744D01*
X14805Y-22744D01*
X14193Y-22133D01*
X14193Y-20625D01*
X14218Y-20500D01*
X14169Y-20253D01*
X14030Y-20044D01*
X13821Y-19905D01*
X13575Y-19856D01*
X13328Y-19905D01*
X13119Y-20044D01*
X13094Y-20069D01*
X12955Y-20278D01*
X12906Y-20525D01*
X12906Y-20525D01*
X12906Y-22399D01*
X12906Y-22400D01*
X12955Y-22646D01*
X13053Y-22792D01*
X12593Y-22333D01*
X12593Y-19025D01*
X12544Y-18778D01*
X12544Y-18778D01*
X12405Y-18569D01*
X12405Y-18569D01*
X10605Y-16769D01*
X10396Y-16630D01*
X10150Y-16581D01*
X10149Y-16581D01*
X9154Y-16581D01*
X9154Y-13306D01*
X9143Y-13088D01*
X9081Y-12937D01*
X8985Y-12909D01*
X8915Y-12980D01*
X8915Y-12839D01*
X8887Y-12743D01*
X8681Y-12670D01*
X8463Y-12681D01*
X8312Y-12743D01*
X8284Y-12839D01*
X8600Y-13154D01*
X8915Y-12839D01*
X8915Y-12980D01*
X8670Y-13225D01*
X8985Y-13540D01*
X9081Y-13512D01*
X9154Y-13306D01*
X9154Y-16581D01*
X8915Y-16581D01*
X8915Y-13610D01*
X8600Y-13295D01*
X8529Y-13366D01*
X8529Y-13225D01*
X8214Y-12909D01*
X8118Y-12937D01*
X8045Y-13143D01*
X8056Y-13361D01*
X8118Y-13512D01*
X8214Y-13540D01*
X8529Y-13225D01*
X8529Y-13366D01*
X8284Y-13610D01*
X8312Y-13706D01*
X8518Y-13779D01*
X8736Y-13768D01*
X8887Y-13706D01*
X8915Y-13610D01*
X8915Y-16581D01*
X8600Y-16581D01*
X8316Y-16581D01*
X7800Y-16064D01*
X7800Y-8825D01*
X7800Y-7924D01*
X7799Y-7825D01*
X7761Y-7733D01*
X7691Y-7662D01*
X7599Y-7624D01*
X7162Y-7625D01*
X7100Y-7687D01*
X7100Y-8325D01*
X7737Y-8325D01*
X7800Y-8262D01*
X7800Y-7924D01*
X7800Y-8825D01*
X7800Y-8487D01*
X7737Y-8425D01*
X7100Y-8425D01*
X7100Y-9062D01*
X7162Y-9125D01*
X7599Y-9125D01*
X7691Y-9087D01*
X7761Y-9016D01*
X7799Y-8924D01*
X7800Y-8825D01*
X7800Y-16064D01*
X7429Y-15694D01*
X7429Y-14150D01*
X7418Y-13942D01*
X7360Y-13802D01*
X7267Y-13777D01*
X7197Y-13848D01*
X7197Y-13707D01*
X7172Y-13614D01*
X7000Y-13553D01*
X7000Y-9062D01*
X7000Y-8425D01*
X7000Y-8325D01*
X7000Y-7687D01*
X6937Y-7625D01*
X6500Y-7624D01*
X6408Y-7662D01*
X6338Y-7733D01*
X6300Y-7825D01*
X6299Y-7924D01*
X6300Y-8262D01*
X6362Y-8325D01*
X7000Y-8325D01*
X7000Y-8425D01*
X6362Y-8425D01*
X6300Y-8487D01*
X6299Y-8825D01*
X6300Y-8924D01*
X6338Y-9016D01*
X6408Y-9087D01*
X6500Y-9125D01*
X6937Y-9125D01*
X7000Y-9062D01*
X7000Y-13553D01*
X6975Y-13545D01*
X6767Y-13556D01*
X6627Y-13614D01*
X6602Y-13707D01*
X6900Y-14004D01*
X7197Y-13707D01*
X7197Y-13848D01*
X6970Y-14075D01*
X7267Y-14372D01*
X7360Y-14347D01*
X7429Y-14150D01*
X7429Y-15694D01*
X7355Y-15619D01*
X7197Y-15514D01*
X7197Y-14442D01*
X6900Y-14145D01*
X6829Y-14216D01*
X6829Y-14075D01*
X6532Y-13777D01*
X6439Y-13802D01*
X6370Y-13999D01*
X6381Y-14207D01*
X6439Y-14347D01*
X6532Y-14372D01*
X6829Y-14075D01*
X6829Y-14216D01*
X6602Y-14442D01*
X6627Y-14535D01*
X6824Y-14604D01*
X7032Y-14593D01*
X7172Y-14535D01*
X7197Y-14442D01*
X7197Y-15514D01*
X7146Y-15480D01*
X6900Y-15431D01*
X6653Y-15480D01*
X6444Y-15619D01*
X6305Y-15828D01*
X6256Y-16075D01*
X6305Y-16321D01*
X6444Y-16530D01*
X7594Y-17680D01*
X7594Y-17680D01*
X7803Y-17819D01*
X7803Y-17819D01*
X8001Y-17858D01*
X8049Y-17868D01*
X8049Y-17868D01*
X8050Y-17868D01*
X8600Y-17868D01*
X9883Y-17868D01*
X11306Y-19291D01*
X11306Y-22599D01*
X11306Y-22600D01*
X11355Y-22846D01*
X11494Y-23055D01*
X12681Y-24241D01*
X12681Y-24597D01*
X12647Y-24632D01*
X12622Y-24539D01*
X12425Y-24470D01*
X12217Y-24481D01*
X12077Y-24539D01*
X12052Y-24632D01*
X12350Y-24929D01*
X12355Y-24923D01*
X12426Y-24994D01*
X12420Y-25000D01*
X12426Y-25005D01*
X12355Y-25076D01*
X12350Y-25070D01*
X12279Y-25141D01*
X12279Y-25000D01*
X11982Y-24702D01*
X11889Y-24727D01*
X11820Y-24924D01*
X11831Y-25132D01*
X11889Y-25272D01*
X11982Y-25297D01*
X12279Y-25000D01*
X12279Y-25141D01*
X12052Y-25367D01*
X12077Y-25460D01*
X12274Y-25529D01*
X12482Y-25518D01*
X12622Y-25460D01*
X12647Y-25367D01*
X12647Y-25367D01*
X12681Y-25402D01*
X12681Y-26099D01*
X12681Y-26100D01*
X12730Y-26346D01*
X12869Y-26555D01*
X13206Y-26891D01*
X13206Y-27310D01*
X13159Y-27263D01*
X12958Y-27179D01*
X12742Y-27179D01*
X12647Y-27218D01*
X12541Y-27262D01*
X12493Y-27310D01*
X12493Y-26450D01*
X12444Y-26203D01*
X12444Y-26203D01*
X12305Y-25994D01*
X12305Y-25994D01*
X10993Y-24683D01*
X10993Y-23200D01*
X10944Y-22953D01*
X10805Y-22744D01*
X10596Y-22605D01*
X10350Y-22556D01*
X10193Y-22587D01*
X10193Y-20500D01*
X10144Y-20253D01*
X10005Y-20044D01*
X9796Y-19905D01*
X9550Y-19856D01*
X6900Y-19856D01*
X6653Y-19905D01*
X6444Y-20044D01*
X6305Y-20253D01*
X6256Y-20500D01*
X6305Y-20746D01*
X6444Y-20955D01*
X6480Y-20978D01*
X6458Y-20988D01*
X6387Y-21058D01*
X6349Y-21150D01*
X6350Y-21387D01*
X6412Y-21450D01*
X6850Y-21450D01*
X6850Y-21442D01*
X6950Y-21442D01*
X6950Y-21450D01*
X7387Y-21450D01*
X7450Y-21387D01*
X7450Y-21150D01*
X7447Y-21143D01*
X9550Y-21143D01*
X9796Y-21094D01*
X10005Y-20955D01*
X10144Y-20746D01*
X10193Y-20500D01*
X10193Y-22587D01*
X10103Y-22605D01*
X9894Y-22744D01*
X9755Y-22953D01*
X9706Y-23200D01*
X9706Y-24949D01*
X9706Y-24950D01*
X9755Y-25196D01*
X9894Y-25405D01*
X11206Y-26716D01*
X11206Y-27310D01*
X11159Y-27263D01*
X10958Y-27179D01*
X10742Y-27179D01*
X10541Y-27262D01*
X10388Y-27415D01*
X10352Y-27500D01*
X10327Y-27439D01*
X10232Y-27413D01*
X10161Y-27483D01*
X10161Y-27342D01*
X10135Y-27247D01*
X9930Y-27174D01*
X9713Y-27185D01*
X9564Y-27247D01*
X9538Y-27342D01*
X9850Y-27654D01*
X10161Y-27342D01*
X10161Y-27483D01*
X9920Y-27725D01*
X10232Y-28036D01*
X10327Y-28010D01*
X10350Y-27944D01*
X10387Y-28033D01*
X10540Y-28186D01*
X10741Y-28270D01*
X10939Y-28270D01*
X10660Y-28549D01*
X10503Y-28580D01*
X10294Y-28719D01*
X10161Y-28918D01*
X10161Y-28107D01*
X9850Y-27795D01*
X9779Y-27866D01*
X9779Y-27725D01*
X9467Y-27413D01*
X9372Y-27439D01*
X9351Y-27498D01*
X9327Y-27439D01*
X9232Y-27413D01*
X9161Y-27483D01*
X9161Y-27342D01*
X9135Y-27247D01*
X8930Y-27174D01*
X8713Y-27185D01*
X8564Y-27247D01*
X8538Y-27342D01*
X8850Y-27654D01*
X9161Y-27342D01*
X9161Y-27483D01*
X8920Y-27725D01*
X9232Y-28036D01*
X9327Y-28010D01*
X9348Y-27951D01*
X9372Y-28010D01*
X9467Y-28036D01*
X9779Y-27725D01*
X9779Y-27866D01*
X9538Y-28107D01*
X9564Y-28202D01*
X9769Y-28275D01*
X9986Y-28264D01*
X10135Y-28202D01*
X10161Y-28107D01*
X10161Y-28918D01*
X10155Y-28928D01*
X10106Y-29175D01*
X10106Y-31074D01*
X10106Y-31075D01*
X10155Y-31321D01*
X10294Y-31530D01*
X11244Y-32480D01*
X11244Y-32480D01*
X11453Y-32619D01*
X11453Y-32619D01*
X11700Y-32668D01*
X20333Y-32668D01*
X20806Y-33141D01*
X20806Y-34383D01*
X20158Y-35031D01*
X11175Y-35031D01*
X11174Y-35031D01*
X11126Y-35041D01*
X10928Y-35080D01*
X10719Y-35219D01*
X10719Y-35219D01*
X9493Y-36445D01*
X9493Y-34139D01*
X9540Y-34186D01*
X9741Y-34270D01*
X9957Y-34270D01*
X10158Y-34187D01*
X10311Y-34034D01*
X10349Y-33942D01*
X10387Y-34033D01*
X10540Y-34186D01*
X10741Y-34270D01*
X10957Y-34270D01*
X11158Y-34187D01*
X11311Y-34034D01*
X11349Y-33942D01*
X11387Y-34033D01*
X11540Y-34186D01*
X11741Y-34270D01*
X11957Y-34270D01*
X12158Y-34187D01*
X12311Y-34034D01*
X12349Y-33942D01*
X12387Y-34033D01*
X12540Y-34186D01*
X12741Y-34270D01*
X12957Y-34270D01*
X13158Y-34187D01*
X13311Y-34034D01*
X13349Y-33942D01*
X13387Y-34033D01*
X13540Y-34186D01*
X13741Y-34270D01*
X13957Y-34270D01*
X14158Y-34187D01*
X14311Y-34034D01*
X14349Y-33942D01*
X14387Y-34033D01*
X14540Y-34186D01*
X14741Y-34270D01*
X14957Y-34270D01*
X15158Y-34187D01*
X15311Y-34034D01*
X15349Y-33942D01*
X15387Y-34033D01*
X15540Y-34186D01*
X15741Y-34270D01*
X15957Y-34270D01*
X16158Y-34187D01*
X16311Y-34034D01*
X16349Y-33942D01*
X16387Y-34033D01*
X16540Y-34186D01*
X16741Y-34270D01*
X16957Y-34270D01*
X17158Y-34187D01*
X17311Y-34034D01*
X17349Y-33942D01*
X17387Y-34033D01*
X17540Y-34186D01*
X17741Y-34270D01*
X17957Y-34270D01*
X18158Y-34187D01*
X18311Y-34034D01*
X18349Y-33942D01*
X18387Y-34033D01*
X18540Y-34186D01*
X18741Y-34270D01*
X18957Y-34270D01*
X19158Y-34187D01*
X19311Y-34034D01*
X19349Y-33942D01*
X19387Y-34033D01*
X19540Y-34186D01*
X19741Y-34270D01*
X19957Y-34270D01*
X20158Y-34187D01*
X20311Y-34034D01*
X20395Y-33833D01*
X20395Y-33617D01*
X20312Y-33416D01*
X20159Y-33263D01*
X19958Y-33179D01*
X19742Y-33179D01*
X19541Y-33262D01*
X19388Y-33415D01*
X19350Y-33507D01*
X19312Y-33416D01*
X19159Y-33263D01*
X18958Y-33179D01*
X18742Y-33179D01*
X18541Y-33262D01*
X18388Y-33415D01*
X18350Y-33507D01*
X18312Y-33416D01*
X18159Y-33263D01*
X17958Y-33179D01*
X17742Y-33179D01*
X17541Y-33262D01*
X17388Y-33415D01*
X17350Y-33507D01*
X17312Y-33416D01*
X17159Y-33263D01*
X16958Y-33179D01*
X16742Y-33179D01*
X16541Y-33262D01*
X16388Y-33415D01*
X16350Y-33507D01*
X16312Y-33416D01*
X16159Y-33263D01*
X15958Y-33179D01*
X15742Y-33179D01*
X15541Y-33262D01*
X15388Y-33415D01*
X15350Y-33507D01*
X15312Y-33416D01*
X15159Y-33263D01*
X14958Y-33179D01*
X14742Y-33179D01*
X14541Y-33262D01*
X14388Y-33415D01*
X14350Y-33507D01*
X14312Y-33416D01*
X14159Y-33263D01*
X13958Y-33179D01*
X13742Y-33179D01*
X13541Y-33262D01*
X13388Y-33415D01*
X13350Y-33507D01*
X13312Y-33416D01*
X13159Y-33263D01*
X12958Y-33179D01*
X12742Y-33179D01*
X12541Y-33262D01*
X12388Y-33415D01*
X12350Y-33507D01*
X12312Y-33416D01*
X12159Y-33263D01*
X11958Y-33179D01*
X11742Y-33179D01*
X11541Y-33262D01*
X11388Y-33415D01*
X11350Y-33507D01*
X11312Y-33416D01*
X11159Y-33263D01*
X10958Y-33179D01*
X10742Y-33179D01*
X10541Y-33262D01*
X10388Y-33415D01*
X10350Y-33507D01*
X10312Y-33416D01*
X10159Y-33263D01*
X9958Y-33179D01*
X9742Y-33179D01*
X9541Y-33262D01*
X9396Y-33406D01*
X9305Y-33269D01*
X9161Y-33174D01*
X9161Y-28107D01*
X8850Y-27795D01*
X8779Y-27866D01*
X8779Y-27725D01*
X8467Y-27413D01*
X8372Y-27439D01*
X8299Y-27644D01*
X8310Y-27861D01*
X8372Y-28010D01*
X8467Y-28036D01*
X8779Y-27725D01*
X8779Y-27866D01*
X8538Y-28107D01*
X8564Y-28202D01*
X8769Y-28275D01*
X8986Y-28264D01*
X9135Y-28202D01*
X9161Y-28107D01*
X9161Y-33174D01*
X9096Y-33130D01*
X8850Y-33081D01*
X8603Y-33130D01*
X8395Y-33269D01*
X8395Y-33117D01*
X8312Y-32916D01*
X8159Y-32763D01*
X8067Y-32725D01*
X8158Y-32687D01*
X8311Y-32534D01*
X8395Y-32333D01*
X8395Y-32117D01*
X8312Y-31916D01*
X8159Y-31763D01*
X8067Y-31725D01*
X8158Y-31687D01*
X8311Y-31534D01*
X8395Y-31333D01*
X8395Y-31117D01*
X8312Y-30916D01*
X8159Y-30763D01*
X8067Y-30725D01*
X8158Y-30687D01*
X8311Y-30534D01*
X8395Y-30333D01*
X8395Y-30117D01*
X8312Y-29916D01*
X8159Y-29763D01*
X8067Y-29725D01*
X8158Y-29687D01*
X8311Y-29534D01*
X8395Y-29333D01*
X8395Y-29117D01*
X8312Y-28916D01*
X8159Y-28763D01*
X8067Y-28725D01*
X8158Y-28687D01*
X8311Y-28534D01*
X8395Y-28333D01*
X8395Y-28117D01*
X8312Y-27916D01*
X8159Y-27763D01*
X7958Y-27679D01*
X7742Y-27679D01*
X7541Y-27762D01*
X7450Y-27853D01*
X7450Y-21849D01*
X7450Y-21612D01*
X7387Y-21550D01*
X6950Y-21550D01*
X6950Y-21987D01*
X7012Y-22050D01*
X7150Y-22050D01*
X7249Y-22049D01*
X7341Y-22011D01*
X7412Y-21941D01*
X7450Y-21849D01*
X7450Y-27853D01*
X7388Y-27915D01*
X7304Y-28116D01*
X7304Y-28332D01*
X7387Y-28533D01*
X7540Y-28686D01*
X7632Y-28724D01*
X7541Y-28762D01*
X7388Y-28915D01*
X7304Y-29116D01*
X7304Y-29332D01*
X7387Y-29533D01*
X7540Y-29686D01*
X7632Y-29724D01*
X7541Y-29762D01*
X7388Y-29915D01*
X7304Y-30116D01*
X7304Y-30332D01*
X7387Y-30533D01*
X7540Y-30686D01*
X7632Y-30724D01*
X7541Y-30762D01*
X7388Y-30915D01*
X7304Y-31116D01*
X7304Y-31332D01*
X7387Y-31533D01*
X7540Y-31686D01*
X7632Y-31724D01*
X7541Y-31762D01*
X7388Y-31915D01*
X7304Y-32116D01*
X7304Y-32332D01*
X7387Y-32533D01*
X7540Y-32686D01*
X7632Y-32724D01*
X7541Y-32762D01*
X7388Y-32915D01*
X7304Y-33116D01*
X7304Y-33332D01*
X7387Y-33533D01*
X7540Y-33686D01*
X7741Y-33770D01*
X7957Y-33770D01*
X8158Y-33687D01*
X8227Y-33618D01*
X8206Y-33725D01*
X8206Y-37677D01*
X8199Y-37674D01*
X7962Y-37675D01*
X7900Y-37737D01*
X7900Y-38175D01*
X7907Y-38175D01*
X7907Y-38275D01*
X7900Y-38275D01*
X7900Y-38712D01*
X7962Y-38775D01*
X8199Y-38775D01*
X8291Y-38737D01*
X8361Y-38666D01*
X8371Y-38644D01*
X8394Y-38680D01*
X8603Y-38819D01*
X8850Y-38868D01*
X9096Y-38819D01*
X9305Y-38680D01*
X9350Y-38613D01*
X9394Y-38680D01*
X9603Y-38819D01*
X9850Y-38868D01*
X10096Y-38819D01*
X10305Y-38680D01*
X10444Y-38471D01*
X10493Y-38225D01*
X10493Y-37266D01*
X11441Y-36318D01*
X20424Y-36318D01*
X20425Y-36318D01*
X20425Y-36318D01*
X20671Y-36269D01*
X20671Y-36269D01*
X20880Y-36130D01*
X21905Y-35105D01*
X22044Y-34896D01*
X22044Y-34896D01*
X22093Y-34650D01*
X22093Y-34650D01*
X22093Y-34649D01*
X22093Y-33518D01*
X24399Y-33518D01*
X24400Y-33518D01*
X24400Y-33518D01*
X24646Y-33469D01*
X24646Y-33469D01*
X24855Y-33330D01*
X25305Y-32880D01*
X25444Y-32671D01*
X25444Y-32671D01*
X25493Y-32425D01*
X25493Y-32425D01*
X25493Y-32424D01*
X25493Y-32082D01*
X25444Y-31835D01*
X25305Y-31626D01*
X25096Y-31487D01*
X24850Y-31438D01*
X24769Y-31454D01*
X24781Y-31424D01*
X24781Y-31325D01*
X24769Y-31295D01*
X24850Y-31311D01*
X25096Y-31262D01*
X25305Y-31123D01*
X25444Y-30914D01*
X25493Y-30667D01*
X25493Y-28800D01*
X25493Y-28799D01*
X25493Y-28799D01*
X25483Y-28751D01*
X25444Y-28553D01*
X25444Y-28553D01*
X25305Y-28344D01*
X25305Y-28344D01*
X24793Y-27833D01*
X24793Y-27543D01*
X24883Y-27483D01*
X24989Y-27324D01*
X24997Y-27317D01*
X25001Y-27307D01*
X25108Y-27146D01*
X25145Y-26959D01*
X25149Y-26949D01*
X25149Y-26938D01*
X25187Y-26750D01*
X25187Y-24750D01*
X25150Y-24562D01*
X25150Y-24551D01*
X25146Y-24541D01*
X25108Y-24353D01*
X25002Y-24194D01*
X24998Y-24184D01*
X24990Y-24176D01*
X24883Y-24016D01*
X24724Y-23910D01*
X24717Y-23902D01*
X24707Y-23898D01*
X24546Y-23791D01*
X24359Y-23754D01*
X24349Y-23750D01*
X24338Y-23750D01*
X24150Y-23712D01*
X24112Y-23720D01*
X23262Y-22870D01*
X23262Y-21253D01*
X23297Y-21305D01*
X23301Y-21315D01*
X23309Y-21323D01*
X23416Y-21483D01*
X25512Y-23579D01*
X25512Y-35845D01*
X24945Y-36412D01*
X24900Y-36412D01*
X24503Y-36491D01*
X24166Y-36716D01*
X23941Y-37053D01*
X23862Y-37450D01*
X23941Y-37846D01*
X24166Y-38183D01*
X24503Y-38408D01*
X24900Y-38487D01*
X25375Y-38487D01*
X25375Y-38487D01*
X25771Y-38408D01*
X26108Y-38183D01*
X27283Y-37008D01*
X27283Y-37008D01*
X27508Y-36671D01*
X27587Y-36275D01*
X27587Y-36275D01*
X27587Y-40151D01*
X23653Y-40155D01*
X23653Y-37579D01*
X23645Y-37281D01*
X23546Y-37041D01*
X23430Y-36990D01*
X23359Y-37060D01*
X23359Y-36919D01*
X23308Y-36803D01*
X23029Y-36696D01*
X22731Y-36704D01*
X22491Y-36803D01*
X22440Y-36919D01*
X22900Y-37379D01*
X23359Y-36919D01*
X23359Y-37060D01*
X22970Y-37450D01*
X23430Y-37909D01*
X23546Y-37858D01*
X23653Y-37579D01*
X23653Y-40155D01*
X23359Y-40155D01*
X23359Y-37980D01*
X22900Y-37520D01*
X22829Y-37591D01*
X22829Y-37450D01*
X22369Y-36990D01*
X22253Y-37041D01*
X22146Y-37320D01*
X22154Y-37618D01*
X22253Y-37858D01*
X22369Y-37909D01*
X22829Y-37450D01*
X22829Y-37591D01*
X22440Y-37980D01*
X22491Y-38096D01*
X22770Y-38203D01*
X23068Y-38195D01*
X23308Y-38096D01*
X23359Y-37980D01*
X23359Y-40155D01*
X7800Y-40171D01*
X7800Y-38712D01*
X7800Y-38275D01*
X7800Y-38175D01*
X7800Y-37737D01*
X7737Y-37675D01*
X7500Y-37674D01*
X7408Y-37712D01*
X7338Y-37783D01*
X7300Y-37875D01*
X7299Y-37974D01*
X7300Y-38112D01*
X7362Y-38175D01*
X7800Y-38175D01*
X7800Y-38275D01*
X7362Y-38275D01*
X7300Y-38337D01*
X7299Y-38475D01*
X7300Y-38574D01*
X7338Y-38666D01*
X7408Y-38737D01*
X7500Y-38775D01*
X7737Y-38775D01*
X7800Y-38712D01*
X7800Y-40171D01*
X6850Y-40172D01*
X6850Y-21987D01*
X6850Y-21550D01*
X6412Y-21550D01*
X6350Y-21612D01*
X6349Y-21849D01*
X6387Y-21941D01*
X6458Y-22011D01*
X6550Y-22049D01*
X6649Y-22050D01*
X6787Y-22050D01*
X6850Y-21987D01*
X6850Y-40172D01*
X4774Y-40174D01*
X4750Y-5925D01*
X28900Y-5925D01*
X28900Y-40150D01*
X28900Y-40150D01*
G37*
G54D25*
X28900Y-40150D02*
X27587Y-40151D01*
X27587Y-36275D01*
X27587Y-23150D01*
X27587Y-23149D01*
X27508Y-22753D01*
X27508Y-22753D01*
X27433Y-22641D01*
X27283Y-22416D01*
X27283Y-22416D01*
X25187Y-20320D01*
X25187Y-18750D01*
X25150Y-18562D01*
X25150Y-18551D01*
X25146Y-18541D01*
X25108Y-18353D01*
X25002Y-18194D01*
X24998Y-18184D01*
X24990Y-18176D01*
X24883Y-18016D01*
X24724Y-17910D01*
X24717Y-17902D01*
X24707Y-17898D01*
X24546Y-17791D01*
X24359Y-17754D01*
X24349Y-17750D01*
X24338Y-17750D01*
X24150Y-17712D01*
X23962Y-17749D01*
X23951Y-17749D01*
X23941Y-17753D01*
X23753Y-17791D01*
X23594Y-17897D01*
X23584Y-17901D01*
X23576Y-17909D01*
X23416Y-18016D01*
X23310Y-18175D01*
X23302Y-18182D01*
X23298Y-18192D01*
X23262Y-18246D01*
X23262Y-16450D01*
X23225Y-16262D01*
X23225Y-10275D01*
X23225Y-6775D01*
X23187Y-6683D01*
X23116Y-6613D01*
X23024Y-6575D01*
X22925Y-6574D01*
X19425Y-6574D01*
X19333Y-6612D01*
X19263Y-6683D01*
X19225Y-6775D01*
X19224Y-6874D01*
X19224Y-10374D01*
X19262Y-10466D01*
X19333Y-10536D01*
X19425Y-10574D01*
X19524Y-10575D01*
X23024Y-10575D01*
X23116Y-10537D01*
X23186Y-10466D01*
X23224Y-10374D01*
X23225Y-10275D01*
X23225Y-16262D01*
X23183Y-16053D01*
X22958Y-15716D01*
X22868Y-15656D01*
X22868Y-15075D01*
X22825Y-14855D01*
X22825Y-14675D01*
X22787Y-14583D01*
X22716Y-14513D01*
X22624Y-14475D01*
X22525Y-14474D01*
X22444Y-14474D01*
X22225Y-14431D01*
X22005Y-14474D01*
X21868Y-14474D01*
X21868Y-14293D01*
X21958Y-14233D01*
X22183Y-13896D01*
X22262Y-13500D01*
X22183Y-13103D01*
X21958Y-12766D01*
X20483Y-11291D01*
X20146Y-11066D01*
X19750Y-10987D01*
X19529Y-10987D01*
X19037Y-10495D01*
X19037Y-9550D01*
X18958Y-9153D01*
X18733Y-8816D01*
X18058Y-8141D01*
X17937Y-8060D01*
X17937Y-7275D01*
X17858Y-6878D01*
X17633Y-6541D01*
X17296Y-6316D01*
X16900Y-6237D01*
X16503Y-6316D01*
X16166Y-6541D01*
X15941Y-6878D01*
X15862Y-7275D01*
X15862Y-8875D01*
X15862Y-10256D01*
X13825Y-10256D01*
X13824Y-10256D01*
X13776Y-10266D01*
X13578Y-10305D01*
X13369Y-10444D01*
X13369Y-10444D01*
X12789Y-11025D01*
X12858Y-10921D01*
X12937Y-10525D01*
X12937Y-8875D01*
X12937Y-7275D01*
X12858Y-6878D01*
X12633Y-6541D01*
X12296Y-6316D01*
X11900Y-6237D01*
X11503Y-6316D01*
X11166Y-6541D01*
X10941Y-6878D01*
X10862Y-7275D01*
X10862Y-7337D01*
X9050Y-7337D01*
X8653Y-7416D01*
X8316Y-7641D01*
X8091Y-7978D01*
X8012Y-8375D01*
X8091Y-8771D01*
X8316Y-9108D01*
X8653Y-9333D01*
X9050Y-9412D01*
X10862Y-9412D01*
X10862Y-10525D01*
X10883Y-10630D01*
X9694Y-11819D01*
X9555Y-12028D01*
X9506Y-12275D01*
X9506Y-12275D01*
X9506Y-13225D01*
X9555Y-13471D01*
X9694Y-13680D01*
X9903Y-13819D01*
X10150Y-13868D01*
X10396Y-13819D01*
X10605Y-13680D01*
X10744Y-13471D01*
X10793Y-13225D01*
X10793Y-12541D01*
X11794Y-11541D01*
X11900Y-11562D01*
X12296Y-11483D01*
X12400Y-11414D01*
X11994Y-11819D01*
X11855Y-12028D01*
X11806Y-12275D01*
X11855Y-12521D01*
X11994Y-12730D01*
X12203Y-12869D01*
X12450Y-12918D01*
X12696Y-12869D01*
X12905Y-12730D01*
X14091Y-11543D01*
X16524Y-11543D01*
X16525Y-11543D01*
X16525Y-11543D01*
X16665Y-11515D01*
X16665Y-11515D01*
X16900Y-11562D01*
X17166Y-11509D01*
X17266Y-11658D01*
X18366Y-12758D01*
X18366Y-12758D01*
X18591Y-12908D01*
X18703Y-12983D01*
X18703Y-12983D01*
X19100Y-13062D01*
X19320Y-13062D01*
X20491Y-14233D01*
X20581Y-14293D01*
X20581Y-14553D01*
X20471Y-14480D01*
X20225Y-14431D01*
X17516Y-14431D01*
X17093Y-14008D01*
X17093Y-12275D01*
X17044Y-12028D01*
X16905Y-11819D01*
X16696Y-11680D01*
X16450Y-11631D01*
X16203Y-11680D01*
X15994Y-11819D01*
X15855Y-12028D01*
X15806Y-12275D01*
X15806Y-14274D01*
X15806Y-14275D01*
X15855Y-14521D01*
X15994Y-14730D01*
X16794Y-15530D01*
X16794Y-15530D01*
X17003Y-15669D01*
X17003Y-15669D01*
X17201Y-15708D01*
X17249Y-15718D01*
X17249Y-15718D01*
X17250Y-15718D01*
X20225Y-15718D01*
X20471Y-15669D01*
X20680Y-15530D01*
X20725Y-15463D01*
X20769Y-15530D01*
X20978Y-15669D01*
X21225Y-15718D01*
X21471Y-15669D01*
X21581Y-15596D01*
X21581Y-15656D01*
X21491Y-15716D01*
X21266Y-16053D01*
X21187Y-16450D01*
X21187Y-19175D01*
X21187Y-19302D01*
X21143Y-19345D01*
X21143Y-18475D01*
X21143Y-17600D01*
X21094Y-17353D01*
X21094Y-17353D01*
X21038Y-17270D01*
X20955Y-17144D01*
X20955Y-17144D01*
X20280Y-16469D01*
X20071Y-16330D01*
X19825Y-16281D01*
X19824Y-16281D01*
X15525Y-16281D01*
X15524Y-16281D01*
X15476Y-16291D01*
X15278Y-16330D01*
X15069Y-16469D01*
X15069Y-16469D01*
X14521Y-17018D01*
X14521Y-16599D01*
X14520Y-16500D01*
X14482Y-16408D01*
X14332Y-16258D01*
X14244Y-16258D01*
X14173Y-16329D01*
X14173Y-16187D01*
X14173Y-16099D01*
X14023Y-15949D01*
X13932Y-15911D01*
X13832Y-15911D01*
X13740Y-15949D01*
X13670Y-16019D01*
X13590Y-16099D01*
X13590Y-16187D01*
X13882Y-16479D01*
X14173Y-16187D01*
X14173Y-16329D01*
X13952Y-16550D01*
X14244Y-16841D01*
X14332Y-16841D01*
X14412Y-16761D01*
X14483Y-16691D01*
X14521Y-16599D01*
X14521Y-17018D01*
X14108Y-17431D01*
X13916Y-17431D01*
X13818Y-17333D01*
X13818Y-17257D01*
X13802Y-17176D01*
X13832Y-17188D01*
X13931Y-17188D01*
X14023Y-17150D01*
X14093Y-17080D01*
X14173Y-17000D01*
X14173Y-16912D01*
X13882Y-16620D01*
X13876Y-16626D01*
X13805Y-16555D01*
X13811Y-16550D01*
X13519Y-16258D01*
X13431Y-16258D01*
X13351Y-16338D01*
X13281Y-16408D01*
X13243Y-16500D01*
X13243Y-16599D01*
X13255Y-16629D01*
X13175Y-16613D01*
X13095Y-16629D01*
X13111Y-16550D01*
X13111Y-14292D01*
X13062Y-14046D01*
X13062Y-14046D01*
X12923Y-13837D01*
X12923Y-13837D01*
X12905Y-13819D01*
X12696Y-13680D01*
X12450Y-13631D01*
X12203Y-13680D01*
X11994Y-13819D01*
X11855Y-14028D01*
X11806Y-14275D01*
X11824Y-14364D01*
X11824Y-16550D01*
X11873Y-16796D01*
X12012Y-17005D01*
X12221Y-17144D01*
X12467Y-17193D01*
X12547Y-17177D01*
X12531Y-17257D01*
X12531Y-17599D01*
X12531Y-17600D01*
X12580Y-17846D01*
X12719Y-18055D01*
X13194Y-18530D01*
X13194Y-18530D01*
X13403Y-18669D01*
X13403Y-18669D01*
X13650Y-18718D01*
X14374Y-18718D01*
X14375Y-18718D01*
X14375Y-18718D01*
X14621Y-18669D01*
X14621Y-18669D01*
X14830Y-18530D01*
X15791Y-17568D01*
X19558Y-17568D01*
X19856Y-17866D01*
X19856Y-18475D01*
X19905Y-18721D01*
X20044Y-18930D01*
X20253Y-19069D01*
X20500Y-19118D01*
X20746Y-19069D01*
X20955Y-18930D01*
X21094Y-18721D01*
X21143Y-18475D01*
X21143Y-19345D01*
X21083Y-19406D01*
X20475Y-19406D01*
X20228Y-19455D01*
X20019Y-19594D01*
X19943Y-19708D01*
X19943Y-19325D01*
X19943Y-19325D01*
X19943Y-19325D01*
X19894Y-19078D01*
X19894Y-19078D01*
X19755Y-18869D01*
X18905Y-18019D01*
X18696Y-17880D01*
X18450Y-17831D01*
X18449Y-17831D01*
X16500Y-17831D01*
X15800Y-17831D01*
X15799Y-17831D01*
X15751Y-17841D01*
X15553Y-17880D01*
X15344Y-18019D01*
X15344Y-18019D01*
X14819Y-18544D01*
X14680Y-18753D01*
X14631Y-19000D01*
X14631Y-19000D01*
X14631Y-22174D01*
X14631Y-22175D01*
X14680Y-22421D01*
X14819Y-22630D01*
X15769Y-23580D01*
X15769Y-23580D01*
X15978Y-23719D01*
X15978Y-23719D01*
X16225Y-23768D01*
X16475Y-23768D01*
X16721Y-23719D01*
X16930Y-23580D01*
X17069Y-23371D01*
X17118Y-23125D01*
X17069Y-22878D01*
X16930Y-22669D01*
X16721Y-22530D01*
X16495Y-22485D01*
X16230Y-22220D01*
X16475Y-22268D01*
X17233Y-22268D01*
X17656Y-22691D01*
X17656Y-24658D01*
X17158Y-25156D01*
X16600Y-25156D01*
X16599Y-25156D01*
X16551Y-25166D01*
X16353Y-25205D01*
X16144Y-25344D01*
X16144Y-25344D01*
X15474Y-26015D01*
X15460Y-25944D01*
X15460Y-25944D01*
X15320Y-25735D01*
X15320Y-25735D01*
X14993Y-25408D01*
X14993Y-25000D01*
X14993Y-23200D01*
X14993Y-23199D01*
X14993Y-23199D01*
X14983Y-23151D01*
X14944Y-22953D01*
X14944Y-22953D01*
X14805Y-22744D01*
X14805Y-22744D01*
X14193Y-22133D01*
X14193Y-20625D01*
X14218Y-20500D01*
X14169Y-20253D01*
X14030Y-20044D01*
X13821Y-19905D01*
X13575Y-19856D01*
X13328Y-19905D01*
X13119Y-20044D01*
X13094Y-20069D01*
X12955Y-20278D01*
X12906Y-20525D01*
X12906Y-20525D01*
X12906Y-22399D01*
X12906Y-22400D01*
X12955Y-22646D01*
X13053Y-22792D01*
X12593Y-22333D01*
X12593Y-19025D01*
X12544Y-18778D01*
X12544Y-18778D01*
X12405Y-18569D01*
X12405Y-18569D01*
X10605Y-16769D01*
X10396Y-16630D01*
X10150Y-16581D01*
X10149Y-16581D01*
X9154Y-16581D01*
X9154Y-13306D01*
X9143Y-13088D01*
X9081Y-12937D01*
X8985Y-12909D01*
X8915Y-12980D01*
X8915Y-12839D01*
X8887Y-12743D01*
X8681Y-12670D01*
X8463Y-12681D01*
X8312Y-12743D01*
X8284Y-12839D01*
X8600Y-13154D01*
X8915Y-12839D01*
X8915Y-12980D01*
X8670Y-13225D01*
X8985Y-13540D01*
X9081Y-13512D01*
X9154Y-13306D01*
X9154Y-16581D01*
X8915Y-16581D01*
X8915Y-13610D01*
X8600Y-13295D01*
X8529Y-13366D01*
X8529Y-13225D01*
X8214Y-12909D01*
X8118Y-12937D01*
X8045Y-13143D01*
X8056Y-13361D01*
X8118Y-13512D01*
X8214Y-13540D01*
X8529Y-13225D01*
X8529Y-13366D01*
X8284Y-13610D01*
X8312Y-13706D01*
X8518Y-13779D01*
X8736Y-13768D01*
X8887Y-13706D01*
X8915Y-13610D01*
X8915Y-16581D01*
X8600Y-16581D01*
X8316Y-16581D01*
X7800Y-16064D01*
X7800Y-8825D01*
X7800Y-7924D01*
X7799Y-7825D01*
X7761Y-7733D01*
X7691Y-7662D01*
X7599Y-7624D01*
X7162Y-7625D01*
X7100Y-7687D01*
X7100Y-8325D01*
X7737Y-8325D01*
X7800Y-8262D01*
X7800Y-7924D01*
X7800Y-8825D01*
X7800Y-8487D01*
X7737Y-8425D01*
X7100Y-8425D01*
X7100Y-9062D01*
X7162Y-9125D01*
X7599Y-9125D01*
X7691Y-9087D01*
X7761Y-9016D01*
X7799Y-8924D01*
X7800Y-8825D01*
X7800Y-16064D01*
X7429Y-15694D01*
X7429Y-14150D01*
X7418Y-13942D01*
X7360Y-13802D01*
X7267Y-13777D01*
X7197Y-13848D01*
X7197Y-13707D01*
X7172Y-13614D01*
X7000Y-13553D01*
X7000Y-9062D01*
X7000Y-8425D01*
X7000Y-8325D01*
X7000Y-7687D01*
X6937Y-7625D01*
X6500Y-7624D01*
X6408Y-7662D01*
X6338Y-7733D01*
X6300Y-7825D01*
X6299Y-7924D01*
X6300Y-8262D01*
X6362Y-8325D01*
X7000Y-8325D01*
X7000Y-8425D01*
X6362Y-8425D01*
X6300Y-8487D01*
X6299Y-8825D01*
X6300Y-8924D01*
X6338Y-9016D01*
X6408Y-9087D01*
X6500Y-9125D01*
X6937Y-9125D01*
X7000Y-9062D01*
X7000Y-13553D01*
X6975Y-13545D01*
X6767Y-13556D01*
X6627Y-13614D01*
X6602Y-13707D01*
X6900Y-14004D01*
X7197Y-13707D01*
X7197Y-13848D01*
X6970Y-14075D01*
X7267Y-14372D01*
X7360Y-14347D01*
X7429Y-14150D01*
X7429Y-15694D01*
X7355Y-15619D01*
X7197Y-15514D01*
X7197Y-14442D01*
X6900Y-14145D01*
X6829Y-14216D01*
X6829Y-14075D01*
X6532Y-13777D01*
X6439Y-13802D01*
X6370Y-13999D01*
X6381Y-14207D01*
X6439Y-14347D01*
X6532Y-14372D01*
X6829Y-14075D01*
X6829Y-14216D01*
X6602Y-14442D01*
X6627Y-14535D01*
X6824Y-14604D01*
X7032Y-14593D01*
X7172Y-14535D01*
X7197Y-14442D01*
X7197Y-15514D01*
X7146Y-15480D01*
X6900Y-15431D01*
X6653Y-15480D01*
X6444Y-15619D01*
X6305Y-15828D01*
X6256Y-16075D01*
X6305Y-16321D01*
X6444Y-16530D01*
X7594Y-17680D01*
X7594Y-17680D01*
X7803Y-17819D01*
X7803Y-17819D01*
X8001Y-17858D01*
X8049Y-17868D01*
X8049Y-17868D01*
X8050Y-17868D01*
X8600Y-17868D01*
X9883Y-17868D01*
X11306Y-19291D01*
X11306Y-22599D01*
X11306Y-22600D01*
X11355Y-22846D01*
X11494Y-23055D01*
X12681Y-24241D01*
X12681Y-24597D01*
X12647Y-24632D01*
X12622Y-24539D01*
X12425Y-24470D01*
X12217Y-24481D01*
X12077Y-24539D01*
X12052Y-24632D01*
X12350Y-24929D01*
X12355Y-24923D01*
X12426Y-24994D01*
X12420Y-25000D01*
X12426Y-25005D01*
X12355Y-25076D01*
X12350Y-25070D01*
X12279Y-25141D01*
X12279Y-25000D01*
X11982Y-24702D01*
X11889Y-24727D01*
X11820Y-24924D01*
X11831Y-25132D01*
X11889Y-25272D01*
X11982Y-25297D01*
X12279Y-25000D01*
X12279Y-25141D01*
X12052Y-25367D01*
X12077Y-25460D01*
X12274Y-25529D01*
X12482Y-25518D01*
X12622Y-25460D01*
X12647Y-25367D01*
X12647Y-25367D01*
X12681Y-25402D01*
X12681Y-26099D01*
X12681Y-26100D01*
X12730Y-26346D01*
X12869Y-26555D01*
X13206Y-26891D01*
X13206Y-27310D01*
X13159Y-27263D01*
X12958Y-27179D01*
X12742Y-27179D01*
X12647Y-27218D01*
X12541Y-27262D01*
X12493Y-27310D01*
X12493Y-26450D01*
X12444Y-26203D01*
X12444Y-26203D01*
X12305Y-25994D01*
X12305Y-25994D01*
X10993Y-24683D01*
X10993Y-23200D01*
X10944Y-22953D01*
X10805Y-22744D01*
X10596Y-22605D01*
X10350Y-22556D01*
X10193Y-22587D01*
X10193Y-20500D01*
X10144Y-20253D01*
X10005Y-20044D01*
X9796Y-19905D01*
X9550Y-19856D01*
X6900Y-19856D01*
X6653Y-19905D01*
X6444Y-20044D01*
X6305Y-20253D01*
X6256Y-20500D01*
X6305Y-20746D01*
X6444Y-20955D01*
X6480Y-20978D01*
X6458Y-20988D01*
X6387Y-21058D01*
X6349Y-21150D01*
X6350Y-21387D01*
X6412Y-21450D01*
X6850Y-21450D01*
X6850Y-21442D01*
X6950Y-21442D01*
X6950Y-21450D01*
X7387Y-21450D01*
X7450Y-21387D01*
X7450Y-21150D01*
X7447Y-21143D01*
X9550Y-21143D01*
X9796Y-21094D01*
X10005Y-20955D01*
X10144Y-20746D01*
X10193Y-20500D01*
X10193Y-22587D01*
X10103Y-22605D01*
X9894Y-22744D01*
X9755Y-22953D01*
X9706Y-23200D01*
X9706Y-24949D01*
X9706Y-24950D01*
X9755Y-25196D01*
X9894Y-25405D01*
X11206Y-26716D01*
X11206Y-27310D01*
X11159Y-27263D01*
X10958Y-27179D01*
X10742Y-27179D01*
X10541Y-27262D01*
X10388Y-27415D01*
X10352Y-27500D01*
X10327Y-27439D01*
X10232Y-27413D01*
X10161Y-27483D01*
X10161Y-27342D01*
X10135Y-27247D01*
X9930Y-27174D01*
X9713Y-27185D01*
X9564Y-27247D01*
X9538Y-27342D01*
X9850Y-27654D01*
X10161Y-27342D01*
X10161Y-27483D01*
X9920Y-27725D01*
X10232Y-28036D01*
X10327Y-28010D01*
X10350Y-27944D01*
X10387Y-28033D01*
X10540Y-28186D01*
X10741Y-28270D01*
X10939Y-28270D01*
X10660Y-28549D01*
X10503Y-28580D01*
X10294Y-28719D01*
X10161Y-28918D01*
X10161Y-28107D01*
X9850Y-27795D01*
X9779Y-27866D01*
X9779Y-27725D01*
X9467Y-27413D01*
X9372Y-27439D01*
X9351Y-27498D01*
X9327Y-27439D01*
X9232Y-27413D01*
X9161Y-27483D01*
X9161Y-27342D01*
X9135Y-27247D01*
X8930Y-27174D01*
X8713Y-27185D01*
X8564Y-27247D01*
X8538Y-27342D01*
X8850Y-27654D01*
X9161Y-27342D01*
X9161Y-27483D01*
X8920Y-27725D01*
X9232Y-28036D01*
X9327Y-28010D01*
X9348Y-27951D01*
X9372Y-28010D01*
X9467Y-28036D01*
X9779Y-27725D01*
X9779Y-27866D01*
X9538Y-28107D01*
X9564Y-28202D01*
X9769Y-28275D01*
X9986Y-28264D01*
X10135Y-28202D01*
X10161Y-28107D01*
X10161Y-28918D01*
X10155Y-28928D01*
X10106Y-29175D01*
X10106Y-31074D01*
X10106Y-31075D01*
X10155Y-31321D01*
X10294Y-31530D01*
X11244Y-32480D01*
X11244Y-32480D01*
X11453Y-32619D01*
X11453Y-32619D01*
X11700Y-32668D01*
X20333Y-32668D01*
X20806Y-33141D01*
X20806Y-34383D01*
X20158Y-35031D01*
X11175Y-35031D01*
X11174Y-35031D01*
X11126Y-35041D01*
X10928Y-35080D01*
X10719Y-35219D01*
X10719Y-35219D01*
X9493Y-36445D01*
X9493Y-34139D01*
X9540Y-34186D01*
X9741Y-34270D01*
X9957Y-34270D01*
X10158Y-34187D01*
X10311Y-34034D01*
X10349Y-33942D01*
X10387Y-34033D01*
X10540Y-34186D01*
X10741Y-34270D01*
X10957Y-34270D01*
X11158Y-34187D01*
X11311Y-34034D01*
X11349Y-33942D01*
X11387Y-34033D01*
X11540Y-34186D01*
X11741Y-34270D01*
X11957Y-34270D01*
X12158Y-34187D01*
X12311Y-34034D01*
X12349Y-33942D01*
X12387Y-34033D01*
X12540Y-34186D01*
X12741Y-34270D01*
X12957Y-34270D01*
X13158Y-34187D01*
X13311Y-34034D01*
X13349Y-33942D01*
X13387Y-34033D01*
X13540Y-34186D01*
X13741Y-34270D01*
X13957Y-34270D01*
X14158Y-34187D01*
X14311Y-34034D01*
X14349Y-33942D01*
X14387Y-34033D01*
X14540Y-34186D01*
X14741Y-34270D01*
X14957Y-34270D01*
X15158Y-34187D01*
X15311Y-34034D01*
X15349Y-33942D01*
X15387Y-34033D01*
X15540Y-34186D01*
X15741Y-34270D01*
X15957Y-34270D01*
X16158Y-34187D01*
X16311Y-34034D01*
X16349Y-33942D01*
X16387Y-34033D01*
X16540Y-34186D01*
X16741Y-34270D01*
X16957Y-34270D01*
X17158Y-34187D01*
X17311Y-34034D01*
X17349Y-33942D01*
X17387Y-34033D01*
X17540Y-34186D01*
X17741Y-34270D01*
X17957Y-34270D01*
X18158Y-34187D01*
X18311Y-34034D01*
X18349Y-33942D01*
X18387Y-34033D01*
X18540Y-34186D01*
X18741Y-34270D01*
X18957Y-34270D01*
X19158Y-34187D01*
X19311Y-34034D01*
X19349Y-33942D01*
X19387Y-34033D01*
X19540Y-34186D01*
X19741Y-34270D01*
X19957Y-34270D01*
X20158Y-34187D01*
X20311Y-34034D01*
X20395Y-33833D01*
X20395Y-33617D01*
X20312Y-33416D01*
X20159Y-33263D01*
X19958Y-33179D01*
X19742Y-33179D01*
X19541Y-33262D01*
X19388Y-33415D01*
X19350Y-33507D01*
X19312Y-33416D01*
X19159Y-33263D01*
X18958Y-33179D01*
X18742Y-33179D01*
X18541Y-33262D01*
X18388Y-33415D01*
X18350Y-33507D01*
X18312Y-33416D01*
X18159Y-33263D01*
X17958Y-33179D01*
X17742Y-33179D01*
X17541Y-33262D01*
X17388Y-33415D01*
X17350Y-33507D01*
X17312Y-33416D01*
X17159Y-33263D01*
X16958Y-33179D01*
X16742Y-33179D01*
X16541Y-33262D01*
X16388Y-33415D01*
X16350Y-33507D01*
X16312Y-33416D01*
X16159Y-33263D01*
X15958Y-33179D01*
X15742Y-33179D01*
X15541Y-33262D01*
X15388Y-33415D01*
X15350Y-33507D01*
X15312Y-33416D01*
X15159Y-33263D01*
X14958Y-33179D01*
X14742Y-33179D01*
X14541Y-33262D01*
X14388Y-33415D01*
X14350Y-33507D01*
X14312Y-33416D01*
X14159Y-33263D01*
X13958Y-33179D01*
X13742Y-33179D01*
X13541Y-33262D01*
X13388Y-33415D01*
X13350Y-33507D01*
X13312Y-33416D01*
X13159Y-33263D01*
X12958Y-33179D01*
X12742Y-33179D01*
X12541Y-33262D01*
X12388Y-33415D01*
X12350Y-33507D01*
X12312Y-33416D01*
X12159Y-33263D01*
X11958Y-33179D01*
X11742Y-33179D01*
X11541Y-33262D01*
X11388Y-33415D01*
X11350Y-33507D01*
X11312Y-33416D01*
X11159Y-33263D01*
X10958Y-33179D01*
X10742Y-33179D01*
X10541Y-33262D01*
X10388Y-33415D01*
X10350Y-33507D01*
X10312Y-33416D01*
X10159Y-33263D01*
X9958Y-33179D01*
X9742Y-33179D01*
X9541Y-33262D01*
X9396Y-33406D01*
X9305Y-33269D01*
X9161Y-33174D01*
X9161Y-28107D01*
X8850Y-27795D01*
X8779Y-27866D01*
X8779Y-27725D01*
X8467Y-27413D01*
X8372Y-27439D01*
X8299Y-27644D01*
X8310Y-27861D01*
X8372Y-28010D01*
X8467Y-28036D01*
X8779Y-27725D01*
X8779Y-27866D01*
X8538Y-28107D01*
X8564Y-28202D01*
X8769Y-28275D01*
X8986Y-28264D01*
X9135Y-28202D01*
X9161Y-28107D01*
X9161Y-33174D01*
X9096Y-33130D01*
X8850Y-33081D01*
X8603Y-33130D01*
X8395Y-33269D01*
X8395Y-33117D01*
X8312Y-32916D01*
X8159Y-32763D01*
X8067Y-32725D01*
X8158Y-32687D01*
X8311Y-32534D01*
X8395Y-32333D01*
X8395Y-32117D01*
X8312Y-31916D01*
X8159Y-31763D01*
X8067Y-31725D01*
X8158Y-31687D01*
X8311Y-31534D01*
X8395Y-31333D01*
X8395Y-31117D01*
X8312Y-30916D01*
X8159Y-30763D01*
X8067Y-30725D01*
X8158Y-30687D01*
X8311Y-30534D01*
X8395Y-30333D01*
X8395Y-30117D01*
X8312Y-29916D01*
X8159Y-29763D01*
X8067Y-29725D01*
X8158Y-29687D01*
X8311Y-29534D01*
X8395Y-29333D01*
X8395Y-29117D01*
X8312Y-28916D01*
X8159Y-28763D01*
X8067Y-28725D01*
X8158Y-28687D01*
X8311Y-28534D01*
X8395Y-28333D01*
X8395Y-28117D01*
X8312Y-27916D01*
X8159Y-27763D01*
X7958Y-27679D01*
X7742Y-27679D01*
X7541Y-27762D01*
X7450Y-27853D01*
X7450Y-21849D01*
X7450Y-21612D01*
X7387Y-21550D01*
X6950Y-21550D01*
X6950Y-21987D01*
X7012Y-22050D01*
X7150Y-22050D01*
X7249Y-22049D01*
X7341Y-22011D01*
X7412Y-21941D01*
X7450Y-21849D01*
X7450Y-27853D01*
X7388Y-27915D01*
X7304Y-28116D01*
X7304Y-28332D01*
X7387Y-28533D01*
X7540Y-28686D01*
X7632Y-28724D01*
X7541Y-28762D01*
X7388Y-28915D01*
X7304Y-29116D01*
X7304Y-29332D01*
X7387Y-29533D01*
X7540Y-29686D01*
X7632Y-29724D01*
X7541Y-29762D01*
X7388Y-29915D01*
X7304Y-30116D01*
X7304Y-30332D01*
X7387Y-30533D01*
X7540Y-30686D01*
X7632Y-30724D01*
X7541Y-30762D01*
X7388Y-30915D01*
X7304Y-31116D01*
X7304Y-31332D01*
X7387Y-31533D01*
X7540Y-31686D01*
X7632Y-31724D01*
X7541Y-31762D01*
X7388Y-31915D01*
X7304Y-32116D01*
X7304Y-32332D01*
X7387Y-32533D01*
X7540Y-32686D01*
X7632Y-32724D01*
X7541Y-32762D01*
X7388Y-32915D01*
X7304Y-33116D01*
X7304Y-33332D01*
X7387Y-33533D01*
X7540Y-33686D01*
X7741Y-33770D01*
X7957Y-33770D01*
X8158Y-33687D01*
X8227Y-33618D01*
X8206Y-33725D01*
X8206Y-37677D01*
X8199Y-37674D01*
X7962Y-37675D01*
X7900Y-37737D01*
X7900Y-38175D01*
X7907Y-38175D01*
X7907Y-38275D01*
X7900Y-38275D01*
X7900Y-38712D01*
X7962Y-38775D01*
X8199Y-38775D01*
X8291Y-38737D01*
X8361Y-38666D01*
X8371Y-38644D01*
X8394Y-38680D01*
X8603Y-38819D01*
X8850Y-38868D01*
X9096Y-38819D01*
X9305Y-38680D01*
X9350Y-38613D01*
X9394Y-38680D01*
X9603Y-38819D01*
X9850Y-38868D01*
X10096Y-38819D01*
X10305Y-38680D01*
X10444Y-38471D01*
X10493Y-38225D01*
X10493Y-37266D01*
X11441Y-36318D01*
X20424Y-36318D01*
X20425Y-36318D01*
X20425Y-36318D01*
X20671Y-36269D01*
X20671Y-36269D01*
X20880Y-36130D01*
X21905Y-35105D01*
X22044Y-34896D01*
X22044Y-34896D01*
X22093Y-34650D01*
X22093Y-34650D01*
X22093Y-34649D01*
X22093Y-33518D01*
X24399Y-33518D01*
X24400Y-33518D01*
X24400Y-33518D01*
X24646Y-33469D01*
X24646Y-33469D01*
X24855Y-33330D01*
X25305Y-32880D01*
X25444Y-32671D01*
X25444Y-32671D01*
X25493Y-32425D01*
X25493Y-32425D01*
X25493Y-32424D01*
X25493Y-32082D01*
X25444Y-31835D01*
X25305Y-31626D01*
X25096Y-31487D01*
X24850Y-31438D01*
X24769Y-31454D01*
X24781Y-31424D01*
X24781Y-31325D01*
X24769Y-31295D01*
X24850Y-31311D01*
X25096Y-31262D01*
X25305Y-31123D01*
X25444Y-30914D01*
X25493Y-30667D01*
X25493Y-28800D01*
X25493Y-28799D01*
X25493Y-28799D01*
X25483Y-28751D01*
X25444Y-28553D01*
X25444Y-28553D01*
X25305Y-28344D01*
X25305Y-28344D01*
X24793Y-27833D01*
X24793Y-27543D01*
X24883Y-27483D01*
X24989Y-27324D01*
X24997Y-27317D01*
X25001Y-27307D01*
X25108Y-27146D01*
X25145Y-26959D01*
X25149Y-26949D01*
X25149Y-26938D01*
X25187Y-26750D01*
X25187Y-24750D01*
X25150Y-24562D01*
X25150Y-24551D01*
X25146Y-24541D01*
X25108Y-24353D01*
X25002Y-24194D01*
X24998Y-24184D01*
X24990Y-24176D01*
X24883Y-24016D01*
X24724Y-23910D01*
X24717Y-23902D01*
X24707Y-23898D01*
X24546Y-23791D01*
X24359Y-23754D01*
X24349Y-23750D01*
X24338Y-23750D01*
X24150Y-23712D01*
X24112Y-23720D01*
X23262Y-22870D01*
X23262Y-21253D01*
X23297Y-21305D01*
X23301Y-21315D01*
X23309Y-21323D01*
X23416Y-21483D01*
X25512Y-23579D01*
X25512Y-35845D01*
X24945Y-36412D01*
X24900Y-36412D01*
X24503Y-36491D01*
X24166Y-36716D01*
X23941Y-37053D01*
X23862Y-37450D01*
X23941Y-37846D01*
X24166Y-38183D01*
X24503Y-38408D01*
X24900Y-38487D01*
X25375Y-38487D01*
X25375Y-38487D01*
X25771Y-38408D01*
X26108Y-38183D01*
X27283Y-37008D01*
X27283Y-37008D01*
X27508Y-36671D01*
X27587Y-36275D01*
X27587Y-36275D01*
X27587Y-40151D01*
X23653Y-40155D01*
X23653Y-37579D01*
X23645Y-37281D01*
X23546Y-37041D01*
X23430Y-36990D01*
X23359Y-37060D01*
X23359Y-36919D01*
X23308Y-36803D01*
X23029Y-36696D01*
X22731Y-36704D01*
X22491Y-36803D01*
X22440Y-36919D01*
X22900Y-37379D01*
X23359Y-36919D01*
X23359Y-37060D01*
X22970Y-37450D01*
X23430Y-37909D01*
X23546Y-37858D01*
X23653Y-37579D01*
X23653Y-40155D01*
X23359Y-40155D01*
X23359Y-37980D01*
X22900Y-37520D01*
X22829Y-37591D01*
X22829Y-37450D01*
X22369Y-36990D01*
X22253Y-37041D01*
X22146Y-37320D01*
X22154Y-37618D01*
X22253Y-37858D01*
X22369Y-37909D01*
X22829Y-37450D01*
X22829Y-37591D01*
X22440Y-37980D01*
X22491Y-38096D01*
X22770Y-38203D01*
X23068Y-38195D01*
X23308Y-38096D01*
X23359Y-37980D01*
X23359Y-40155D01*
X7800Y-40171D01*
X7800Y-38712D01*
X7800Y-38275D01*
X7800Y-38175D01*
X7800Y-37737D01*
X7737Y-37675D01*
X7500Y-37674D01*
X7408Y-37712D01*
X7338Y-37783D01*
X7300Y-37875D01*
X7299Y-37974D01*
X7300Y-38112D01*
X7362Y-38175D01*
X7800Y-38175D01*
X7800Y-38275D01*
X7362Y-38275D01*
X7300Y-38337D01*
X7299Y-38475D01*
X7300Y-38574D01*
X7338Y-38666D01*
X7408Y-38737D01*
X7500Y-38775D01*
X7737Y-38775D01*
X7800Y-38712D01*
X7800Y-40171D01*
X6850Y-40172D01*
X6850Y-21987D01*
X6850Y-21550D01*
X6412Y-21550D01*
X6350Y-21612D01*
X6349Y-21849D01*
X6387Y-21941D01*
X6458Y-22011D01*
X6550Y-22049D01*
X6649Y-22050D01*
X6787Y-22050D01*
X6850Y-21987D01*
X6850Y-40172D01*
X4774Y-40174D01*
X4750Y-5925D01*
X28900Y-5925D01*
X28900Y-40150D01*
M02*
